<svg width="44" height="36" viewBox="0 0 44 36" fill="none" xmlns="http://www.w3.org/2000/svg">
<g clip-path="url(#clip0_1435_5401)">
<path fill-rule="evenodd" clip-rule="evenodd" d="M17.3085 30.7885C18.6374 31.4595 20.1388 31.8378 21.7287 31.8378H21.7365H21.7442C23.3342 31.8378 24.8355 31.4595 26.1645 30.7885L26.1621 30.7815C29.3598 29.1613 31.5517 25.844 31.5517 22.014C31.5517 21.7849 31.5424 21.5589 31.5276 21.3344H31.5284C31.5284 21.3344 31.5315 21.3111 31.5338 21.2638L31.5493 21.2606C31.5789 20.6486 31.4212 15.9806 21.7442 1.89819L21.7365 1.90907L21.7287 1.89819C12.0518 15.9806 11.8941 20.6486 11.9236 21.2606L11.9391 21.2638C11.9415 21.3111 11.9446 21.3344 11.9446 21.3344H11.9453C11.9298 21.5589 11.9213 21.7849 11.9213 22.014C11.9213 25.844 14.1131 29.1613 17.3108 30.7815L17.3085 30.7885Z" fill="white" stroke="black" stroke-width="0.7" stroke-miterlimit="2.61313" stroke-linecap="round" stroke-linejoin="round"/>
<path d="M21.5625 28.2059C18.0432 28.2059 15.1896 25.3523 15.1896 21.833" stroke="black" stroke-width="0.7" stroke-miterlimit="2.61313" stroke-linecap="round" stroke-linejoin="round"/>
<path d="M36.5 17.4998C35.1192 17.4998 34 16.3802 34 14.9998" stroke="black" stroke-width="0.7" stroke-miterlimit="2.61313" stroke-linecap="round" stroke-linejoin="round"/>
<path fill-rule="evenodd" clip-rule="evenodd" d="M34.6466 18.4564C35.0525 18.6758 35.5117 18.7998 35.9975 18.7998H36.0002H36.0029C36.4888 18.7998 36.9479 18.6758 37.3539 18.4564L37.3528 18.4541C38.3299 17.9239 38.9999 16.8379 38.9999 15.5843C38.9999 15.5092 38.9972 15.4353 38.9923 15.362H38.9928C38.9928 15.362 38.9939 15.3544 38.9945 15.3387L38.9994 15.3375C39.0086 15.1373 38.9602 13.6091 36.0024 8.99976L36.0002 9.00325L35.998 8.99976C33.0402 13.6096 32.9918 15.1373 33.0011 15.3375L33.006 15.3387C33.0065 15.3544 33.0076 15.362 33.0076 15.362C33.0027 15.4353 33 15.5098 33 15.5843C33 16.8379 33.67 17.9239 34.6471 18.4541L34.646 18.4564H34.6466Z" stroke="black" stroke-width="0.7" stroke-miterlimit="2.61313" stroke-linecap="round" stroke-linejoin="round"/>
<path d="M8.37489 33.2137C7.14226 33.2137 6.14264 32.2141 6.14264 30.9814" stroke="black" stroke-width="0.7" stroke-miterlimit="2.61313" stroke-linecap="round" stroke-linejoin="round"/>
<path fill-rule="evenodd" clip-rule="evenodd" d="M6.88512 34.1184C7.35037 34.353 7.8762 34.4858 8.43387 34.4858H8.43698H8.44008C8.99698 34.4858 9.52281 34.353 9.98805 34.1184L9.98728 34.1161C11.1073 33.5483 11.8754 32.3864 11.8754 31.045C11.8754 30.965 11.8723 30.8858 11.8669 30.8073C11.8669 30.8073 11.8685 30.7996 11.8692 30.7825L11.8747 30.7817C11.8848 30.5673 11.8296 28.9324 8.44008 23.9995L8.43775 24.0034L8.43542 23.9995C5.04589 28.9324 4.99074 30.5673 5.00084 30.7817L5.00627 30.7825C5.00705 30.7988 5.0086 30.8073 5.0086 30.8073C5.00317 30.8858 5.00006 30.965 5.00006 31.045C5.00006 32.3864 5.76822 33.5483 6.88823 34.1161L6.88745 34.1184H6.88512Z" stroke="black" stroke-width="0.7" stroke-miterlimit="2.61313" stroke-linecap="round" stroke-linejoin="round"/>
<path fill-rule="evenodd" clip-rule="evenodd" d="M10.1325 17.4293C10.7127 17.7221 11.369 17.8875 12.0634 17.8875H12.0673H12.0712C12.7656 17.8875 13.4219 17.7221 14.0021 17.4293L14.0005 17.4261C15.397 16.7186 16.3547 15.2692 16.3547 13.5962C16.3547 13.496 16.3508 13.3974 16.3438 13.2995H16.3446C16.3446 13.2995 16.3462 13.2894 16.3469 13.2685L16.3539 13.2669C16.3671 12.9997 16.298 10.9601 12.0704 4.80859L12.0673 4.81325L12.0642 4.80859C7.83659 10.9609 7.76746 12.9997 7.78067 13.2669L7.78766 13.2685C7.78843 13.2894 7.78999 13.2995 7.78999 13.2995C7.783 13.3974 7.77911 13.4968 7.77911 13.5962C7.77911 15.2692 8.73679 16.7186 10.1333 17.4261L10.1317 17.4293H10.1325Z" fill="white" stroke="black" stroke-width="0.7" stroke-miterlimit="2.61313" stroke-linecap="round" stroke-linejoin="round"/>
<path d="M11.9904 16.3015C10.4525 16.3015 9.20593 15.0549 9.20593 13.5178" stroke="black" stroke-width="0.7" stroke-miterlimit="2.61313" stroke-linecap="round" stroke-linejoin="round"/>
<path d="M31.5851 30.7775C33.3383 30.7775 34.7595 29.3563 34.7595 27.6031C34.7595 25.8499 33.3383 24.4287 31.5851 24.4287C29.8319 24.4287 28.4107 25.8499 28.4107 27.6031C28.4107 29.3563 29.8319 30.7775 31.5851 30.7775Z" fill="white" stroke="black" stroke-width="0.7" stroke-miterlimit="2.61313" stroke-linecap="round" stroke-linejoin="round"/>
<path d="M3.82802 20.1888C5.21057 20.1888 6.33134 19.068 6.33134 17.6854C6.33134 16.3029 5.21057 15.1821 3.82802 15.1821C2.44548 15.1821 1.32471 16.3029 1.32471 17.6854C1.32471 19.068 2.44548 20.1888 3.82802 20.1888Z" fill="white" stroke="black" stroke-width="0.7" stroke-miterlimit="2.61313" stroke-linecap="round" stroke-linejoin="round"/>
<path d="M41.7499 19.5717C42.5597 19.5717 43.2163 18.9152 43.2163 18.1053C43.2163 17.2955 42.5597 16.6389 41.7499 16.6389C40.94 16.6389 40.2834 17.2955 40.2834 18.1053C40.2834 18.9152 40.94 19.5717 41.7499 19.5717Z" fill="white" stroke="black" stroke-width="0.7" stroke-miterlimit="2.61313" stroke-linecap="round" stroke-linejoin="round"/>
<path d="M27.6729 5.53005C28.8791 5.53005 29.857 4.5522 29.857 3.34596C29.857 2.13972 28.8791 1.16187 27.6729 1.16187C26.4666 1.16187 25.4888 2.13972 25.4888 3.34596C25.4888 4.5522 26.4666 5.53005 27.6729 5.53005Z" fill="white" stroke="black" stroke-width="0.7" stroke-miterlimit="2.61313" stroke-linecap="round" stroke-linejoin="round"/>
<path d="M37.7071 29.7578C38.517 29.7578 39.1735 29.1012 39.1735 28.2914C39.1735 27.4815 38.517 26.825 37.7071 26.825C36.8972 26.825 36.2407 27.4815 36.2407 28.2914C36.2407 29.1012 36.8972 29.7578 37.7071 29.7578Z" fill="white" stroke="black" stroke-width="0.7" stroke-miterlimit="2.61313" stroke-linecap="round" stroke-linejoin="round"/>
<path d="M14.1869 35.2876C14.9968 35.2876 15.6533 34.631 15.6533 33.8212C15.6533 33.0113 14.9968 32.3547 14.1869 32.3547C13.377 32.3547 12.7205 33.0113 12.7205 33.8212C12.7205 34.631 13.377 35.2876 14.1869 35.2876Z" fill="white" stroke="black" stroke-width="0.7" stroke-miterlimit="2.61313" stroke-linecap="round" stroke-linejoin="round"/>
</g>
<defs>
<clipPath id="clip0_1435_5401">
<rect width="44" height="36" fill="white" transform="translate(0 -0.000244141)"/>
</clipPath>
</defs>
</svg>
