<svg width="40" height="40" viewBox="0 0 40 40" fill="none" xmlns="http://www.w3.org/2000/svg">
<g clip-path="url(#clip0_1435_5351)">
<mask id="mask0_1435_5351" style="mask-type:alpha" maskUnits="userSpaceOnUse" x="7" y="7" width="26" height="26">
<path fill-rule="evenodd" clip-rule="evenodd" d="M19.9999 7.49683C26.9042 7.49683 32.5028 13.0954 32.5028 19.9998C32.5028 26.9041 26.9042 32.5027 19.9999 32.5027C13.0955 32.5027 7.49695 26.9041 7.49695 19.9998C7.49695 13.0954 13.0955 7.49683 19.9999 7.49683Z" fill="#D9D9D9" stroke="black" stroke-width="0.7" stroke-miterlimit="2.61313" stroke-linecap="round" stroke-linejoin="round"/>
</mask>
<g mask="url(#mask0_1435_5351)">
<path d="M19.9999 3.09839V36.9012" stroke="black" stroke-width="0.7" stroke-miterlimit="2.61313" stroke-linecap="round" stroke-linejoin="round"/>
<path d="M22.1665 3.09839V36.9012" stroke="black" stroke-width="0.7" stroke-miterlimit="2.61313" stroke-linecap="round" stroke-linejoin="round"/>
<path d="M24.3333 3.09839V36.9012" stroke="black" stroke-width="0.7" stroke-miterlimit="2.61313" stroke-linecap="round" stroke-linejoin="round"/>
<path d="M26.5 3.09839V36.9012" stroke="black" stroke-width="0.7" stroke-miterlimit="2.61313" stroke-linecap="round" stroke-linejoin="round"/>
<path d="M28.6666 3.09839V36.9012" stroke="black" stroke-width="0.7" stroke-miterlimit="2.61313" stroke-linecap="round" stroke-linejoin="round"/>
<path d="M30.8333 3.09839V36.9012" stroke="black" stroke-width="0.7" stroke-miterlimit="2.61313" stroke-linecap="round" stroke-linejoin="round"/>
<path d="M33 3.09839V36.9012" stroke="black" stroke-width="0.7" stroke-miterlimit="2.61313" stroke-linecap="round" stroke-linejoin="round"/>
</g>
<path fill-rule="evenodd" clip-rule="evenodd" d="M19.9999 7.49707C26.9042 7.49707 32.5028 13.0957 32.5028 20C32.5028 26.9043 26.9042 32.5029 19.9999 32.5029C13.0955 32.5029 7.49695 26.9043 7.49695 20C7.49695 13.0957 13.0955 7.49707 19.9999 7.49707V7.49707Z" stroke="black" stroke-width="0.7" stroke-miterlimit="2.61313" stroke-linecap="round" stroke-linejoin="round"/>
<path d="M19.9999 4.19595V0.349121" stroke="black" stroke-width="0.7" stroke-miterlimit="2.61313" stroke-linecap="round" stroke-linejoin="round"/>
<path d="M19.9999 39.6508V35.804" stroke="black" stroke-width="0.7" stroke-miterlimit="2.61313" stroke-linecap="round" stroke-linejoin="round"/>
<path d="M27.9049 6.3116L29.8239 2.9812" stroke="black" stroke-width="0.7" stroke-miterlimit="2.61313" stroke-linecap="round" stroke-linejoin="round"/>
<path d="M10.176 37.0186L12.095 33.6882" stroke="black" stroke-width="0.7" stroke-miterlimit="2.61313" stroke-linecap="round" stroke-linejoin="round"/>
<path d="M33.6884 12.095L37.0188 10.176" stroke="black" stroke-width="0.7" stroke-miterlimit="2.61313" stroke-linecap="round" stroke-linejoin="round"/>
<path d="M2.9812 29.8238L6.3116 27.9048" stroke="black" stroke-width="0.7" stroke-miterlimit="2.61313" stroke-linecap="round" stroke-linejoin="round"/>
<path d="M35.804 19.9998H39.6508" stroke="black" stroke-width="0.7" stroke-miterlimit="2.61313" stroke-linecap="round" stroke-linejoin="round"/>
<path d="M0.349121 19.9998H4.19595" stroke="black" stroke-width="0.7" stroke-miterlimit="2.61313" stroke-linecap="round" stroke-linejoin="round"/>
<path d="M33.6884 27.9048L37.0188 29.8238" stroke="black" stroke-width="0.7" stroke-miterlimit="2.61313" stroke-linecap="round" stroke-linejoin="round"/>
<path d="M2.9812 10.176L6.3116 12.095" stroke="black" stroke-width="0.7" stroke-miterlimit="2.61313" stroke-linecap="round" stroke-linejoin="round"/>
<path d="M27.9049 33.6882L29.8239 37.0186" stroke="black" stroke-width="0.7" stroke-miterlimit="2.61313" stroke-linecap="round" stroke-linejoin="round"/>
<path d="M10.176 2.9812L12.095 6.3116" stroke="black" stroke-width="0.7" stroke-miterlimit="2.61313" stroke-linecap="round" stroke-linejoin="round"/>
</g>
<defs>
<clipPath id="clip0_1435_5351">
<rect width="40" height="40" fill="white"/>
</clipPath>
</defs>
</svg>
