<svg width="36" height="35" viewBox="0 0 36 35" fill="none" xmlns="http://www.w3.org/2000/svg">
<g clip-path="url(#clip0_1435_5392)">
<path d="M9.0062 6.86819L7.1283 8.74609L33.1248 34.7426L35.0027 32.8647L9.0062 6.86819Z" fill="black" stroke="black" stroke-width="0.7" stroke-miterlimit="2.61313" stroke-linecap="round" stroke-linejoin="round"/>
<path d="M9.0062 6.86819L7.1283 8.74609L12.5187 14.1365L14.3967 12.2586L9.0062 6.86819Z" fill="white" stroke="black" stroke-width="0.7" stroke-miterlimit="2.61313" stroke-linecap="round" stroke-linejoin="round"/>
<path fill-rule="evenodd" clip-rule="evenodd" d="M17.5683 7.06122C17.5683 7.06122 17.5997 4.35952 19.9646 3.72598C19.9646 3.72598 17.6058 3.09419 17.5683 0.390735C17.5674 0.34623 17.5674 0.301725 17.5683 0.256348C17.5692 0.301725 17.5692 0.347103 17.5683 0.390735C17.5308 3.09331 15.172 3.72598 15.172 3.72598C17.5369 4.35952 17.5683 7.06122 17.5683 7.06122Z" fill="white" stroke="black" stroke-width="0.7" stroke-miterlimit="2.61313" stroke-linecap="round" stroke-linejoin="round"/>
<path fill-rule="evenodd" clip-rule="evenodd" d="M7.50492 23.5063C7.50492 23.5063 7.53634 20.8046 9.9012 20.171C9.9012 20.171 7.54245 19.5393 7.50492 16.8358C7.50405 16.7913 7.50405 16.7468 7.50492 16.7014C7.5058 16.7468 7.5058 16.7922 7.50492 16.8358C7.4674 19.5384 5.10864 20.171 5.10864 20.171C7.47351 20.8046 7.50492 23.5063 7.50492 23.5063Z" fill="white" stroke="black" stroke-width="0.7" stroke-miterlimit="2.61313" stroke-linecap="round" stroke-linejoin="round"/>
<path fill-rule="evenodd" clip-rule="evenodd" d="M2.65299 7.98798C2.65299 7.98798 2.68441 5.28628 5.04927 4.65274C5.04927 4.65274 2.69052 4.02094 2.65299 1.31749C2.65212 1.27299 2.65212 1.22848 2.65299 1.18311C2.65387 1.22848 2.65387 1.27386 2.65299 1.31749C2.61547 4.02007 0.256714 4.65274 0.256714 4.65274C2.62158 5.28628 2.65299 7.98798 2.65299 7.98798Z" fill="white" stroke="black" stroke-width="0.7" stroke-miterlimit="2.61313" stroke-linecap="round" stroke-linejoin="round"/>
</g>
<defs>
<clipPath id="clip0_1435_5392">
<rect width="35.2603" height="35" fill="white" transform="translate(0 -0.000244141)"/>
</clipPath>
</defs>
</svg>
