<svg width="42" height="42" viewBox="0 0 42 42" fill="none" xmlns="http://www.w3.org/2000/svg">
<circle cx="21" cy="21" r="21" fill="#F5F5F5"/>
<path d="M9.25781 32.73H33.5039" stroke="black" stroke-width="0.753543" stroke-linecap="round"/>
<path d="M24.5454 28.8645C23.6485 29.3165 22.6345 29.57 21.5631 29.57C17.9015 29.57 14.9336 26.6044 14.9336 22.9429C14.9336 22.7898 14.9408 22.6367 14.9527 22.4837H14.9504C14.9504 22.4837 14.5151 19.6281 21.5631 9.37061C28.0921 18.8724 28.1973 22.0221 28.1782 22.4358C25.9301 22.8185 24.2202 24.7748 24.2202 27.1306C24.2202 27.7428 24.3349 28.3263 24.5454 28.8645Z" stroke="black" stroke-width="0.753543" stroke-miterlimit="2.613" stroke-linecap="round" stroke-linejoin="round"/>
<path d="M21.9623 26.5663C19.5874 26.5663 17.6621 24.641 17.6621 22.2661" stroke="black" stroke-width="0.753543" stroke-miterlimit="2.613" stroke-linecap="round" stroke-linejoin="round"/>
<path d="M29.1602 25.1685V28.0611" stroke="black" stroke-width="0.753543" stroke-linecap="round"/>
<path d="M27.2324 27.0972L29.1609 29.0256L31.0893 27.0972" stroke="black" stroke-width="0.753543" stroke-linecap="round"/>
<path d="M29.0208 22.4126C31.5315 22.4126 33.5674 24.4485 33.5674 26.9592C33.5674 29.4699 31.5315 31.5058 29.0208 31.5058C26.5102 31.5058 24.4766 29.4699 24.4766 26.9592C24.4766 24.4485 26.5102 22.4126 29.0208 22.4126Z" stroke="black" stroke-width="0.753543" stroke-miterlimit="2.613" stroke-linecap="round" stroke-linejoin="round"/>
<path d="M12.6927 9C14.7328 9 16.3878 10.6527 16.3878 12.6928C16.3878 14.7328 14.7328 16.3878 12.6927 16.3878C10.655 16.3878 9 14.7328 9 12.6928C9 10.6527 10.655 9 12.6927 9Z" stroke="black" stroke-width="0.753543" stroke-miterlimit="2.613" stroke-linecap="round" stroke-linejoin="round"/>
<path d="M21.9623 26.5663C19.5874 26.5663 17.6621 24.641 17.6621 22.2661" stroke="black" stroke-width="0.753543" stroke-miterlimit="2.613" stroke-linecap="round" stroke-linejoin="round"/>
<path fill-rule="evenodd" clip-rule="evenodd" d="M12.6927 9.0376C14.7328 9.0376 16.3878 10.6903 16.3878 12.7304C16.3878 14.7704 14.7328 16.4254 12.6927 16.4254C10.655 16.4254 9 14.7704 9 12.7304C9 10.6903 10.655 9.0376 12.6927 9.0376Z" stroke="black" stroke-width="0.753543" stroke-miterlimit="2.613" stroke-linecap="round" stroke-linejoin="round"/>
<path d="M12.8427 14.4931C11.7665 14.4931 10.8936 13.6202 10.8936 12.5439" stroke="black" stroke-width="0.753543" stroke-miterlimit="2.613" stroke-linecap="round" stroke-linejoin="round"/>
</svg>
