<svg width="178" height="24" viewBox="0 0 178 24" fill="none" xmlns="http://www.w3.org/2000/svg">
<rect width="178" height="24" rx="2" fill="#C7E7DC"/>
<path d="M23.5 12C23.5 16.1421 20.1421 19.5 16 19.5C11.8579 19.5 8.5 16.1421 8.5 12C8.5 7.85786 11.8579 4.5 16 4.5C20.1421 4.5 23.5 7.85786 23.5 12Z" stroke="black"/>
<path d="M12.4447 11.3333L15.1113 14L20 9.11133" stroke="black" stroke-width="2"/>
<path d="M36.1737 8.278L33.4347 16H31.0807L28.3417 8.278H30.3437L32.2577 14.108L34.1827 8.278H36.1737ZM39.8408 9.785V11.347H42.3598V12.799H39.8408V14.493H42.6898V16H37.9598V8.278H42.6898V9.785H39.8408ZM48.849 16L47.243 13.085H46.792V16H44.911V8.278H48.068C48.6767 8.278 49.1937 8.38433 49.619 8.597C50.0517 8.80967 50.3743 9.103 50.587 9.477C50.7997 9.84367 50.906 10.2543 50.906 10.709C50.906 11.2223 50.7593 11.6807 50.466 12.084C50.18 12.4873 49.7547 12.7733 49.19 12.942L50.972 16H48.849ZM46.792 11.754H47.958C48.3027 11.754 48.5593 11.6697 48.728 11.501C48.904 11.3323 48.992 11.094 48.992 10.786C48.992 10.4927 48.904 10.2617 48.728 10.093C48.5593 9.92433 48.3027 9.84 47.958 9.84H46.792V11.754ZM54.9678 8.278V16H53.0868V8.278H54.9678ZM62.3579 8.278V9.785H59.2119V11.413H61.5659V12.876H59.2119V16H57.3309V8.278H62.3579ZM66.2276 8.278V16H64.3466V8.278H66.2276ZM70.4717 9.785V11.347H72.9907V12.799H70.4717V14.493H73.3207V16H68.5907V8.278H73.3207V9.785H70.4717ZM78.4349 8.278C79.2489 8.278 79.9602 8.43933 80.5689 8.762C81.1775 9.08467 81.6469 9.53933 81.9769 10.126C82.3142 10.7053 82.4829 11.3763 82.4829 12.139C82.4829 12.8943 82.3142 13.5653 81.9769 14.152C81.6469 14.7387 81.1739 15.1933 80.5579 15.516C79.9492 15.8387 79.2415 16 78.4349 16H75.5419V8.278H78.4349ZM78.3139 14.372C79.0252 14.372 79.5789 14.1777 79.9749 13.789C80.3709 13.4003 80.5689 12.8503 80.5689 12.139C80.5689 11.4277 80.3709 10.874 79.9749 10.478C79.5789 10.082 79.0252 9.884 78.3139 9.884H77.4229V14.372H78.3139ZM93.4201 8.278V9.785H91.3741V16H89.4931V9.785H87.4471V8.278H93.4201ZM97.2451 9.785V11.347H99.7641V12.799H97.2451V14.493H100.094V16H95.3641V8.278H100.094V9.785H97.2451ZM105.109 16.077C104.545 16.077 104.039 15.9853 103.591 15.802C103.144 15.6187 102.785 15.3473 102.513 14.988C102.249 14.6287 102.11 14.196 102.095 13.69H104.097C104.127 13.976 104.226 14.196 104.394 14.35C104.563 14.4967 104.783 14.57 105.054 14.57C105.333 14.57 105.553 14.5077 105.714 14.383C105.876 14.251 105.956 14.0713 105.956 13.844C105.956 13.6533 105.89 13.4957 105.758 13.371C105.634 13.2463 105.476 13.1437 105.285 13.063C105.102 12.9823 104.838 12.8907 104.493 12.788C103.995 12.634 103.588 12.48 103.272 12.326C102.957 12.172 102.686 11.9447 102.458 11.644C102.231 11.3433 102.117 10.951 102.117 10.467C102.117 9.74833 102.378 9.18733 102.898 8.784C103.419 8.37333 104.097 8.168 104.933 8.168C105.784 8.168 106.47 8.37333 106.99 8.784C107.511 9.18733 107.79 9.752 107.826 10.478H105.791C105.777 10.2287 105.685 10.0343 105.516 9.895C105.348 9.74833 105.131 9.675 104.867 9.675C104.64 9.675 104.457 9.73733 104.317 9.862C104.178 9.97933 104.108 10.1517 104.108 10.379C104.108 10.6283 104.226 10.8227 104.46 10.962C104.695 11.1013 105.062 11.2517 105.56 11.413C106.059 11.5817 106.462 11.743 106.77 11.897C107.086 12.051 107.357 12.2747 107.584 12.568C107.812 12.8613 107.925 13.239 107.925 13.701C107.925 14.141 107.812 14.5407 107.584 14.9C107.364 15.2593 107.042 15.5453 106.616 15.758C106.191 15.9707 105.689 16.077 105.109 16.077ZM115.638 8.278V9.785H113.592V16H111.711V9.785H109.665V8.278H115.638ZM119.463 8.278V16H117.582V8.278H119.463ZM130.571 8.278V16H128.69V11.369L126.963 16H125.445L123.707 11.358V16H121.826V8.278H124.048L126.215 13.624L128.36 8.278H130.571ZM136.576 16.077C135.85 16.077 135.182 15.9083 134.574 15.571C133.972 15.2337 133.492 14.7643 133.133 14.163C132.781 13.5543 132.605 12.8723 132.605 12.117C132.605 11.3617 132.781 10.6833 133.133 10.082C133.492 9.48067 133.972 9.01133 134.574 8.674C135.182 8.33667 135.85 8.168 136.576 8.168C137.302 8.168 137.965 8.33667 138.567 8.674C139.175 9.01133 139.652 9.48067 139.997 10.082C140.349 10.6833 140.525 11.3617 140.525 12.117C140.525 12.8723 140.349 13.5543 139.997 14.163C139.645 14.7643 139.168 15.2337 138.567 15.571C137.965 15.9083 137.302 16.077 136.576 16.077ZM136.576 14.361C137.192 14.361 137.683 14.1557 138.05 13.745C138.424 13.3343 138.611 12.7917 138.611 12.117C138.611 11.435 138.424 10.8923 138.05 10.489C137.683 10.0783 137.192 9.873 136.576 9.873C135.952 9.873 135.454 10.0747 135.08 10.478C134.713 10.8813 134.53 11.4277 134.53 12.117C134.53 12.799 134.713 13.3453 135.08 13.756C135.454 14.1593 135.952 14.361 136.576 14.361ZM149.479 16H147.598L144.452 11.237V16H142.571V8.278H144.452L147.598 13.063V8.278H149.479V16ZM153.724 8.278V16H151.843V8.278H153.724ZM160.894 14.636H158.012L157.55 16H155.581L158.375 8.278H160.553L163.347 16H161.356L160.894 14.636ZM160.41 13.184L159.453 10.357L158.507 13.184H160.41ZM167.078 14.548H169.542V16H165.197V8.278H167.078V14.548Z" fill="black"/>
</svg>
