<svg width="24" height="19" viewBox="0 0 24 19" fill="none" xmlns="http://www.w3.org/2000/svg">
<path d="M0.923077 0.692383C0.367789 0.692383 0 1.06017 0 1.61546V14.5385C0 15.0938 0.367789 15.4616 0.923077 15.4616H2.76923C2.95313 13.8931 4.33774 12.6058 6 12.6058C7.66226 12.6058 9.04688 13.8931 9.23077 15.4616H12.9231C13.4784 15.4616 13.8462 15.0938 13.8462 14.5385V1.61546C13.8462 1.06017 13.4784 0.692383 12.9231 0.692383H0.923077ZM10.0385 3.89431C10.1899 3.89431 10.3486 3.95921 10.4423 4.09623L10.9904 4.67315C11.1743 4.85705 11.1815 5.2032 10.9038 5.48084L6.375 10.0097C6.09736 10.2873 5.72236 10.2873 5.53846 10.0097L2.94231 7.44238C2.66466 7.16474 2.66466 6.78974 2.94231 6.60584L3.51923 6.05777C3.79687 5.78012 4.14303 5.78012 4.32692 6.05777L6 7.702L9.60577 4.09623C9.74279 3.95921 9.88702 3.89431 10.0385 3.89431ZM15.6923 4.38469C15.137 4.38469 14.7692 4.75248 14.7692 5.30777V14.5385C14.7692 15.0001 15.137 15.4616 15.6923 15.4616C15.8762 13.8931 17.2608 12.6058 18.9231 12.6058C20.5853 12.6058 21.97 13.7994 22.1538 15.4616H23.0769C23.6322 15.4616 24 15.0938 24 14.5385V9.92315C24 9.09383 23.25 8.077 23.25 8.077L21.2308 5.30777C20.7692 4.75248 20.4916 4.38469 19.8462 4.38469H15.6923ZM17.5385 6.23084H19.7596C19.9435 6.23084 20.1346 6.40392 20.1346 6.40392L22.0673 9.08661C22.2512 9.36426 22.4423 9.65272 22.4423 9.83661H17.5385V6.23084ZM6 13.7885C4.82813 13.7885 3.86538 14.7513 3.86538 15.9232C3.86538 17.095 4.82813 18.0578 6 18.0578C7.17188 18.0578 8.13462 17.095 8.13462 15.9232C8.13462 14.7513 7.17188 13.7885 6 13.7885ZM18.9231 13.7885C17.7512 13.7885 16.7885 14.7513 16.7885 15.9232C16.7885 17.095 17.7512 18.0578 18.9231 18.0578C20.095 18.0578 21.0577 17.095 21.0577 15.9232C21.0577 14.7513 20.095 13.7885 18.9231 13.7885Z" fill="#4F937D"/>
</svg>
