<svg width="43" height="43" viewBox="0 0 43 43" fill="none" xmlns="http://www.w3.org/2000/svg">
<path d="M21.5726 1V5.23721" stroke="black" stroke-width="0.7" stroke-miterlimit="2.61313" stroke-linecap="round" stroke-linejoin="round"/>
<path d="M20.3184 4.28711L21.5727 5.23716" stroke="black" stroke-width="0.7" stroke-miterlimit="2.61313" stroke-linecap="round" stroke-linejoin="round"/>
<path d="M22.8269 4.28711L21.5726 5.23716" stroke="black" stroke-width="0.7" stroke-miterlimit="2.61313" stroke-linecap="round" stroke-linejoin="round"/>
<path d="M21.5726 42.145L21.5726 37.9078" stroke="black" stroke-width="0.7" stroke-miterlimit="2.61313" stroke-linecap="round" stroke-linejoin="round"/>
<path d="M22.8269 38.8579L21.5726 37.9079" stroke="black" stroke-width="0.7" stroke-miterlimit="2.61313" stroke-linecap="round" stroke-linejoin="round"/>
<path d="M20.3183 38.8579L21.5726 37.9079" stroke="black" stroke-width="0.7" stroke-miterlimit="2.61313" stroke-linecap="round" stroke-linejoin="round"/>
<path d="M42.1453 21.5723L37.9081 21.5723" stroke="black" stroke-width="0.7" stroke-miterlimit="2.61313" stroke-linecap="round" stroke-linejoin="round"/>
<path d="M38.858 20.3179L37.908 21.5722" stroke="black" stroke-width="0.7" stroke-miterlimit="2.61313" stroke-linecap="round" stroke-linejoin="round"/>
<path d="M38.858 22.8266L37.908 21.5723" stroke="black" stroke-width="0.7" stroke-miterlimit="2.61313" stroke-linecap="round" stroke-linejoin="round"/>
<path d="M1 21.5728L5.23721 21.5728" stroke="black" stroke-width="0.7" stroke-miterlimit="2.61313" stroke-linecap="round" stroke-linejoin="round"/>
<path d="M4.28723 22.8271L5.23729 21.5728" stroke="black" stroke-width="0.7" stroke-miterlimit="2.61313" stroke-linecap="round" stroke-linejoin="round"/>
<path d="M4.28723 20.3185L5.23729 21.5728" stroke="black" stroke-width="0.7" stroke-miterlimit="2.61313" stroke-linecap="round" stroke-linejoin="round"/>
<path d="M36.1196 7.02588L33.1235 10.022" stroke="black" stroke-width="0.7" stroke-miterlimit="2.61313" stroke-linecap="round" stroke-linejoin="round"/>
<path d="M32.9083 8.46289L33.1235 10.0216" stroke="black" stroke-width="0.7" stroke-miterlimit="2.61313" stroke-linecap="round" stroke-linejoin="round"/>
<path d="M34.6822 10.237L33.1235 10.0219" stroke="black" stroke-width="0.7" stroke-miterlimit="2.61313" stroke-linecap="round" stroke-linejoin="round"/>
<path d="M7.02563 36.1191L10.0218 33.123" stroke="black" stroke-width="0.7" stroke-miterlimit="2.61313" stroke-linecap="round" stroke-linejoin="round"/>
<path d="M10.2369 34.6821L10.0218 33.1234" stroke="black" stroke-width="0.7" stroke-miterlimit="2.61313" stroke-linecap="round" stroke-linejoin="round"/>
<path d="M8.46305 32.908L10.0218 33.1231" stroke="black" stroke-width="0.7" stroke-miterlimit="2.61313" stroke-linecap="round" stroke-linejoin="round"/>
<path d="M36.1198 36.1191L33.1236 33.123" stroke="black" stroke-width="0.7" stroke-miterlimit="2.61313" stroke-linecap="round" stroke-linejoin="round"/>
<path d="M34.6823 32.9082L33.1235 33.1233" stroke="black" stroke-width="0.7" stroke-miterlimit="2.61313" stroke-linecap="round" stroke-linejoin="round"/>
<path d="M32.9085 34.6818L33.1236 33.1231" stroke="black" stroke-width="0.7" stroke-miterlimit="2.61313" stroke-linecap="round" stroke-linejoin="round"/>
<path d="M7.02551 7.02588L10.0217 10.022" stroke="black" stroke-width="0.7" stroke-miterlimit="2.61313" stroke-linecap="round" stroke-linejoin="round"/>
<path d="M8.46301 10.2368L10.0217 10.0217" stroke="black" stroke-width="0.7" stroke-miterlimit="2.61313" stroke-linecap="round" stroke-linejoin="round"/>
<path d="M10.2368 8.46317L10.0216 10.0219" stroke="black" stroke-width="0.7" stroke-miterlimit="2.61313" stroke-linecap="round" stroke-linejoin="round"/>
</svg>
