<svg width="42" height="42" viewBox="0 0 42 42" fill="none" xmlns="http://www.w3.org/2000/svg">
<circle cx="21" cy="21" r="21" fill="#F5F5F5"/>
<path d="M25.9039 19.8196V19.8196C26.7271 19.1748 27.9171 19.3195 28.5619 20.1427L29.7534 21.6638C31.5364 23.9402 31.1364 27.231 28.86 29.014L27.6008 30.0003C26.8536 30.5855 25.9046 30.8499 24.9624 30.7354V30.7354C24.0203 30.6209 23.1622 30.1368 22.577 29.3896L20.7599 27.0697C20.4029 26.614 20.483 25.9552 20.9387 25.5982V25.5982C21.3944 25.2413 22.0532 25.3214 22.4102 25.7771L23.2232 26.8152M26.8212 20.9908L26.0915 20.0592C25.7576 19.6329 25.1413 19.558 24.715 19.8919V19.8919V19.8919C24.2887 20.2258 24.2138 20.8421 24.5477 21.2684L24.9438 21.7741" stroke="black" stroke-width="0.75"/>
<path d="M23.0731 22.8958L19.3622 18.1579C18.9707 17.6581 18.2481 17.5703 17.7483 17.9618V17.9618C17.2485 18.3532 17.1607 19.0758 17.5522 19.5756L22.514 25.9106" stroke="black" stroke-width="0.75"/>
<path d="M24.6322 21.3771L24.2765 20.923C23.9081 20.4526 23.228 20.37 22.7576 20.7384V20.7384C22.2872 21.1069 22.2045 21.7869 22.573 22.2573L23.4069 23.322" stroke="black" stroke-width="0.75"/>
<path d="M19.8498 19.1054C20.2993 18.3704 20.3566 17.4227 19.918 16.6098C19.2618 15.3938 17.7441 14.9399 16.528 15.5961C15.312 16.2522 14.8581 17.77 15.5143 18.986C16.0037 19.8931 16.9726 20.3761 17.938 20.2907" stroke="black" stroke-width="0.75"/>
<path d="M11.9473 15.922C12.8572 13.6399 15.0772 12.0283 17.6716 12.0283C20.3842 12.0283 22.6876 13.7902 23.5121 16.2382" stroke="black" stroke-width="0.75"/>
<path d="M10 13.9752C11.3066 11.0414 14.2147 9 17.5924 9C21.1339 9 24.159 11.244 25.3634 14.4079" stroke="black" stroke-width="0.75"/>
</svg>
