<svg width="42" height="42" viewBox="0 0 42 42" fill="none" xmlns="http://www.w3.org/2000/svg">
<circle cx="21" cy="21" r="21" fill="#F5F5F5"/>
<path d="M12.3271 10V32.4483" stroke="black" stroke-width="0.75"/>
<path d="M16.9141 10V32.4483" stroke="black" stroke-width="0.75"/>
<path d="M21.5 10V32.4483" stroke="black" stroke-width="0.75"/>
<path d="M26.0859 10V32.4483" stroke="black" stroke-width="0.75"/>
<path d="M30.6729 10V32.4483" stroke="black" stroke-width="0.75"/>
<path d="M13.2802 26.4739C13.2802 27.0492 12.8382 27.4868 12.3276 27.4868C11.817 27.4868 11.375 27.0492 11.375 26.4739C11.375 25.8986 11.817 25.4609 12.3276 25.4609C12.8382 25.4609 13.2802 25.8986 13.2802 26.4739Z" fill="#F5F5F5" stroke="black" stroke-width="0.75"/>
<path d="M17.8661 17.302C17.8661 17.8773 17.4241 18.3149 16.9135 18.3149C16.403 18.3149 15.9609 17.8773 15.9609 17.302C15.9609 16.7267 16.403 16.2891 16.9135 16.2891C17.4241 16.2891 17.8661 16.7267 17.8661 17.302Z" fill="#F5F5F5" stroke="black" stroke-width="0.75"/>
<path d="M22.453 28.7668C22.453 29.3421 22.011 29.7798 21.5004 29.7798C20.9899 29.7798 20.5479 29.3421 20.5479 28.7668C20.5479 28.1915 20.9899 27.7539 21.5004 27.7539C22.011 27.7539 22.453 28.1915 22.453 28.7668Z" fill="#F5F5F5" stroke="black" stroke-width="0.75"/>
<path d="M27.039 21.6467C27.039 22.222 26.5969 22.6597 26.0864 22.6597C25.5758 22.6597 25.1338 22.222 25.1338 21.6467C25.1338 21.0714 25.5758 20.6338 26.0864 20.6338C26.5969 20.6338 27.039 21.0714 27.039 21.6467Z" fill="#F5F5F5" stroke="black" stroke-width="0.75"/>
<path d="M31.6249 21.6467C31.6249 22.222 31.1829 22.6597 30.6723 22.6597C30.1617 22.6597 29.7197 22.222 29.7197 21.6467C29.7197 21.0714 30.1617 20.6338 30.6723 20.6338C31.1829 20.6338 31.6249 21.0714 31.6249 21.6467Z" fill="#F5F5F5" stroke="black" stroke-width="0.75"/>
</svg>
