<svg width="42" height="42" viewBox="0 0 42 42" fill="none" xmlns="http://www.w3.org/2000/svg">
<circle cx="21" cy="21" r="21" fill="#F5F5F5"/>
<path d="M21.1164 30.8959C26.518 30.8959 30.8969 26.5171 30.8969 21.1154C30.8969 15.7138 26.518 11.335 21.1164 11.335C15.7148 11.335 11.3359 15.7138 11.3359 21.1154C11.3359 26.5171 15.7148 30.8959 21.1164 30.8959Z" stroke="black" stroke-width="0.75" stroke-miterlimit="2.61313" stroke-linecap="round" stroke-linejoin="round"/>
<path d="M21.1162 28.3809C25.1289 28.3809 28.3818 25.1279 28.3818 21.1152C28.3818 17.1025 25.1289 13.8496 21.1162 13.8496C17.1035 13.8496 13.8506 17.1025 13.8506 21.1152C13.8506 25.1279 17.1035 28.3809 21.1162 28.3809Z" stroke="black" stroke-width="0.75" stroke-miterlimit="2.61313" stroke-linecap="round" stroke-linejoin="round"/>
<path d="M21.1164 25.726C23.6628 25.726 25.727 23.6618 25.727 21.1155C25.727 18.5691 23.6628 16.5049 21.1164 16.5049C18.5701 16.5049 16.5059 18.5691 16.5059 21.1155C16.5059 23.6618 18.5701 25.726 21.1164 25.726Z" stroke="black" stroke-width="0.75" stroke-miterlimit="2.61313" stroke-linecap="round" stroke-linejoin="round"/>
<path d="M21.1161 23.243C22.2913 23.243 23.244 22.2903 23.244 21.1151C23.244 19.94 22.2913 18.9873 21.1161 18.9873C19.9409 18.9873 18.9883 19.94 18.9883 21.1151C18.9883 22.2903 19.9409 23.243 21.1161 23.243Z" stroke="black" stroke-width="0.75" stroke-miterlimit="2.61313" stroke-linecap="round" stroke-linejoin="round"/>
<path d="M21.1699 6V9.12455" stroke="black" stroke-width="0.75" stroke-miterlimit="2.61313" stroke-linecap="round" stroke-linejoin="round"/>
<path d="M20.2451 8.42383L21.17 9.12421" stroke="black" stroke-width="0.75" stroke-miterlimit="2.61313" stroke-linecap="round" stroke-linejoin="round"/>
<path d="M22.0949 8.42383L21.1699 9.12421" stroke="black" stroke-width="0.75" stroke-miterlimit="2.61313" stroke-linecap="round" stroke-linejoin="round"/>
<path d="M21.1699 36.3408L21.1699 33.2163" stroke="black" stroke-width="0.75" stroke-miterlimit="2.61313" stroke-linecap="round" stroke-linejoin="round"/>
<path d="M22.0947 33.917L21.1698 33.2166" stroke="black" stroke-width="0.75" stroke-miterlimit="2.61313" stroke-linecap="round" stroke-linejoin="round"/>
<path d="M20.245 33.917L21.1699 33.2166" stroke="black" stroke-width="0.75" stroke-miterlimit="2.61313" stroke-linecap="round" stroke-linejoin="round"/>
<path d="M36.3408 21.1719L33.2163 21.1719" stroke="black" stroke-width="0.75" stroke-miterlimit="2.61313" stroke-linecap="round" stroke-linejoin="round"/>
<path d="M33.917 20.2461L33.2164 21.171" stroke="black" stroke-width="0.75" stroke-miterlimit="2.61313" stroke-linecap="round" stroke-linejoin="round"/>
<path d="M33.917 22.0968L33.2164 21.1719" stroke="black" stroke-width="0.75" stroke-miterlimit="2.61313" stroke-linecap="round" stroke-linejoin="round"/>
<path d="M6 21.1699L9.12455 21.1699" stroke="black" stroke-width="0.75" stroke-miterlimit="2.61313" stroke-linecap="round" stroke-linejoin="round"/>
<path d="M8.42383 22.0947L9.12441 21.1698" stroke="black" stroke-width="0.75" stroke-miterlimit="2.61313" stroke-linecap="round" stroke-linejoin="round"/>
<path d="M8.42383 20.245L9.12441 21.1699" stroke="black" stroke-width="0.75" stroke-miterlimit="2.61313" stroke-linecap="round" stroke-linejoin="round"/>
<path d="M31.8975 10.4434L29.6881 12.6528" stroke="black" stroke-width="0.75" stroke-miterlimit="2.61313" stroke-linecap="round" stroke-linejoin="round"/>
<path d="M29.5293 11.5029L29.6879 12.6522" stroke="black" stroke-width="0.75" stroke-miterlimit="2.61313" stroke-linecap="round" stroke-linejoin="round"/>
<path d="M30.8375 12.8112L29.6883 12.6525" stroke="black" stroke-width="0.75" stroke-miterlimit="2.61313" stroke-linecap="round" stroke-linejoin="round"/>
<path d="M10.4443 31.8975L12.6537 29.6881" stroke="black" stroke-width="0.75" stroke-miterlimit="2.61313" stroke-linecap="round" stroke-linejoin="round"/>
<path d="M12.8125 30.8379L12.6539 29.6886" stroke="black" stroke-width="0.75" stroke-miterlimit="2.61313" stroke-linecap="round" stroke-linejoin="round"/>
<path d="M11.5043 29.5297L12.6535 29.6883" stroke="black" stroke-width="0.75" stroke-miterlimit="2.61313" stroke-linecap="round" stroke-linejoin="round"/>
<path d="M31.8965 31.8975L29.6871 29.6881" stroke="black" stroke-width="0.75" stroke-miterlimit="2.61313" stroke-linecap="round" stroke-linejoin="round"/>
<path d="M30.8369 29.5293L29.6877 29.6879" stroke="black" stroke-width="0.75" stroke-miterlimit="2.61313" stroke-linecap="round" stroke-linejoin="round"/>
<path d="M29.5287 30.8375L29.6873 29.6883" stroke="black" stroke-width="0.75" stroke-miterlimit="2.61313" stroke-linecap="round" stroke-linejoin="round"/>
<path d="M10.4434 10.4434L12.6528 12.6528" stroke="black" stroke-width="0.75" stroke-miterlimit="2.61313" stroke-linecap="round" stroke-linejoin="round"/>
<path d="M11.5029 12.8115L12.6522 12.6529" stroke="black" stroke-width="0.75" stroke-miterlimit="2.61313" stroke-linecap="round" stroke-linejoin="round"/>
<path d="M12.8112 11.5033L12.6525 12.6525" stroke="black" stroke-width="0.75" stroke-miterlimit="2.61313" stroke-linecap="round" stroke-linejoin="round"/>
</svg>