<svg width="33" height="22" viewBox="0 0 33 22" fill="none" xmlns="http://www.w3.org/2000/svg">
<path fill-rule="evenodd" clip-rule="evenodd" d="M16.5242 1.14307H18.9413V17.5793H12.4284C11.945 15.6456 10.4523 14.1953 7.81739 14.1953C5.1825 14.1953 3.68975 15.6456 3.20633 17.5793H2.50511C2.50511 17.5793 2.50511 17.5793 2.50511 17.0958C2.50511 16.129 1.53828 14.6787 0.571442 14.1953V1.14307L16.5242 1.14307Z" stroke="black" stroke-miterlimit="2.61313" stroke-linecap="round" stroke-linejoin="round"/>
<path fill-rule="evenodd" clip-rule="evenodd" d="M7.82251 16.3848C9.27276 16.3848 10.2396 17.3516 10.2396 18.8019C10.2396 20.2521 9.27276 21.2189 7.82251 21.2189C6.37226 21.2189 5.40543 20.2521 5.40543 18.8019C5.40543 17.3516 6.37226 16.3848 7.82251 16.3848Z" stroke="black" stroke-miterlimit="2.61313" stroke-linecap="round" stroke-linejoin="round"/>
<path fill-rule="evenodd" clip-rule="evenodd" d="M27.1275 16.3848C28.5777 16.3848 29.5446 17.3516 29.5446 18.8019C29.5446 20.2521 28.5777 21.2189 27.1275 21.2189C25.6772 21.2189 24.7104 20.2521 24.7104 18.8019C24.7104 17.3516 25.6772 16.3848 27.1275 16.3848Z" stroke="black" stroke-miterlimit="2.61313" stroke-linecap="round" stroke-linejoin="round"/>
<path fill-rule="evenodd" clip-rule="evenodd" d="M22.134 5.26611H27.935L32.2857 10.5837V17.835H31.5314C31.048 15.9013 29.5552 14.451 26.9681 14.451C24.2854 14.451 22.7927 15.9013 22.3093 17.835H21.6505V5.26611H22.134Z" stroke="black" stroke-miterlimit="2.61313" stroke-linecap="round" stroke-linejoin="round"/>
<path d="M32.0002 11L22.0002 11" stroke="black"/>
<path d="M24.0002 5L24.0002 11" stroke="black"/>
<path d="M15.0044 1.14307H0.772766V12.3251H15.0044V1.14307Z" stroke="black" stroke-miterlimit="2.61313" stroke-linecap="round" stroke-linejoin="round"/>
<path d="M8.13108 8.30583C8.17903 8.31126 8.24225 8.31251 8.29152 8.31251C8.31664 8.31251 8.33872 8.31218 8.35424 8.31186L8.37227 8.3114L8.37704 8.31124L8.37788 8.31119C8.68946 8.30577 8.99047 8.23707 9.27565 8.11604L9.27566 8.11605L9.27655 8.11565C9.58227 7.97876 9.84728 7.79443 10.0814 7.56298L10.0818 7.56259C10.3112 7.33088 10.4997 7.05703 10.6373 6.74123C10.7751 6.4248 10.8465 6.08727 10.8465 5.72391C10.8465 5.36055 10.7751 5.02302 10.6373 4.7066C10.4999 4.39114 10.3164 4.1172 10.0818 3.88008L10.0818 3.88007C9.85221 3.64808 9.58196 3.46375 9.27655 3.327L9.27617 3.32684C8.97487 3.19492 8.65298 3.12627 8.32091 3.12627C7.98872 3.12627 7.67184 3.19496 7.37064 3.32684C7.06995 3.45849 6.7995 3.64296 6.56978 3.88027C6.33528 4.11735 6.1519 4.39122 6.01455 4.7066C5.87673 5.02307 5.80535 5.36577 5.80535 5.72391C5.80535 6.0871 5.87668 6.42968 6.0094 6.74088L6.00939 6.74089L6.00982 6.74185C6.15206 7.05678 6.33534 7.33058 6.56498 7.56259C6.79457 7.79455 7.06474 7.97881 7.36497 8.11552L7.36497 8.11553L7.36592 8.11594C7.61062 8.2213 7.86075 8.28465 8.13108 8.30583ZM8.13108 8.30583C8.13078 8.3058 8.13047 8.30576 8.13016 8.30573L8.13586 8.25605L8.13198 8.3059C8.13168 8.30588 8.13138 8.30586 8.13108 8.30583ZM8.94903 7.89876L8.94851 7.8991C8.77782 8.01178 8.56769 8.07169 8.32091 8.07169C8.07841 8.07169 7.86937 8.01663 7.69991 7.89504L7.69995 7.89498L7.69778 7.89359C7.52091 7.77998 7.37627 7.61624 7.2646 7.41054L7.26461 7.41054L7.26416 7.40975C7.14753 7.20388 7.06403 6.95623 7.00975 6.66558C6.95533 6.37421 6.92558 6.0569 6.92558 5.71875C6.92558 5.38075 6.9553 5.06358 7.00967 4.77232C7.06897 4.4814 7.15261 4.23309 7.26484 4.02134C7.37615 3.8113 7.52068 3.65228 7.6986 3.53303L7.6986 3.53303L7.69912 3.53267C7.86942 3.41536 8.07913 3.35546 8.32591 3.35546C8.57219 3.35546 8.77719 3.41513 8.95296 3.53285C9.12577 3.65196 9.27085 3.81639 9.38765 4.02257C9.50419 4.22828 9.58766 4.48089 9.63695 4.76608L9.63694 4.76608L9.63707 4.76674C9.69148 5.05809 9.72124 5.3754 9.72124 5.71875C9.72124 6.06731 9.69147 6.38456 9.6371 6.67059L9.63707 6.67075C9.58278 6.9614 9.49928 7.20905 9.38265 7.41492L9.38265 7.41492L9.38222 7.41571C9.27054 7.62141 9.12591 7.78515 8.94903 7.89876Z" fill="black" stroke="black" stroke-width="0.1" stroke-linecap="round" stroke-linejoin="round"/>
<path d="M10.7965 8.84842C10.8241 8.84842 10.8465 8.82603 10.8465 8.79842V7.73389C10.8465 7.70627 10.8241 7.68389 10.7965 7.68389C10.4442 7.68389 10.1169 7.75783 9.81023 7.90042C9.5046 8.04253 9.23915 8.23232 9.01444 8.47507C8.7903 8.7172 8.61219 8.99599 8.48002 9.3059L8.48001 9.3059L8.47955 9.30705C8.36224 9.60219 8.30117 9.91283 8.291 10.2334L8.29097 10.2334V10.235V10.235V10.235V10.235V10.235V10.235V10.235V10.235V10.2351V10.2351V10.2351V10.2351V10.2351V10.2351V10.2351V10.2351V10.2351V10.2351V10.2351V10.2351V10.2351V10.2352V10.2352V10.2352V10.2352V10.2352V10.2352V10.2352V10.2353V10.2353V10.2353V10.2353V10.2353V10.2353V10.2353V10.2354V10.2354V10.2354V10.2354V10.2354V10.2355V10.2355V10.2355V10.2355V10.2355V10.2356V10.2356V10.2356V10.2356V10.2357V10.2357V10.2357V10.2357V10.2358V10.2358V10.2358V10.2358V10.2359V10.2359V10.2359V10.236V10.236V10.236V10.236V10.2361V10.2361V10.2361V10.2362V10.2362V10.2362V10.2363V10.2363V10.2363V10.2364V10.2364V10.2364V10.2365V10.2365V10.2366V10.2366V10.2366V10.2367V10.2367V10.2367V10.2368V10.2368V10.2369V10.2369V10.237V10.237V10.237V10.2371V10.2371V10.2372V10.2372V10.2373V10.2373V10.2374V10.2374V10.2374V10.2375V10.2375V10.2376V10.2376V10.2377V10.2377V10.2378V10.2378V10.2379V10.2379V10.238V10.238V10.2381V10.2381V10.2382V10.2383V10.2383V10.2384V10.2384V10.2385V10.2385V10.2386V10.2386V10.2387V10.2388V10.2388V10.2389V10.2389V10.239V10.2391V10.2391V10.2392V10.2392V10.2393V10.2394V10.2394V10.2395V10.2396V10.2396V10.2397V10.2397V10.2398V10.2399V10.2399V10.24V10.2401V10.2401V10.2402V10.2403V10.2404V10.2404V10.2405V10.2406V10.2406V10.2407V10.2408V10.2408V10.2409V10.241V10.2411V10.2411V10.2412V10.2413V10.2414V10.2414V10.2415V10.2416V10.2417V10.2417V10.2418V10.2419V10.242V10.2421V10.2421V10.2422V10.2423V10.2424V10.2425V10.2425V10.2426V10.2427V10.2428V10.2429V10.243V10.243V10.2431V10.2432V10.2433V10.2434V10.2435V10.2436V10.2436V10.2437V10.2438V10.2439V10.244V10.2441V10.2442V10.2443V10.2444V10.2445V10.2445V10.2446V10.2447V10.2448V10.2449V10.245V10.2451V10.2452V10.2453V10.2454V10.2455V10.2456V10.2457V10.2458V10.2459V10.246V10.2461V10.2462V10.2463V10.2464V10.2465V10.2466V10.2467V10.2468V10.2469V10.247V10.2471V10.2472V10.2473V10.2474V10.2475V10.2476V10.2477V10.2478V10.2479V10.248V10.2481V10.2482V10.2483V10.2484V10.2485V10.2487V10.2488V10.2489V10.249V10.2491V10.2492V10.2493V10.2494V10.2495V10.2497V10.2498V10.2499V10.25V10.2501V10.2502V10.2503V10.2505V10.2506V10.2507V10.2508V10.2509V10.251V10.2512V10.2513V10.2514V10.2515V10.2516V10.2518V10.2519V10.252V10.2521V10.2522V10.2524V10.2525V10.2526V10.2527V10.2528V10.253V10.2531V10.2532V10.2533V10.2535V10.2536V10.2537V10.2539V10.254V10.2541V10.2542V10.2544V10.2545V10.2546V10.2548V10.2549V10.255V10.2551V10.2553V10.2554V10.2555V10.2557V10.2558V10.2559V10.2561V10.2562V10.2563V10.2565V10.2566V10.2567V10.2569V10.257V10.2572V10.2573V10.2574V10.2576V10.2577V10.2578V10.258V10.2581V10.2583V10.2584V10.2585V10.2587V10.2588V10.259V10.2591V10.2593V10.2594V10.2595V10.2597V10.2598V10.26V10.2601V10.2603V10.2604V10.2606V10.2607V10.2609V10.261V10.2612V10.2613V10.2614V10.2616V10.2617V10.2619V10.262V10.2622V10.2624V10.2625V10.2627V10.2628V10.263V10.2631V10.2633V10.2634V10.2636V10.2637V10.2639V10.264V10.2642V10.2644V10.2645V10.2647V10.2648V10.265V10.2651V10.2653V10.2655V10.2656V10.2658V10.2659V10.2661V10.2663V10.2664V10.2666V10.2667V10.2669V10.2671V10.2672V10.2674V10.2676V10.2677V10.2679V10.2681V10.2682V10.2684V10.2686V10.2687V10.2689V10.2691V10.2692V10.2694V10.2696V10.2697V10.2699V10.2701V10.2702V10.2704V10.2706V10.2708V10.2709V10.2711V10.2713V10.2714V10.2716V10.2718V10.272V10.2721V10.2723V10.2725V10.2727V10.2728V10.273V10.2732V10.2734V10.2735V10.2737V10.2739V10.2741V10.2743V10.2744V10.2746V10.2748V10.275V10.2752V10.2753V10.2755V10.2757V10.2759V10.2761V10.2762V10.2764V10.2766V10.2768V10.277V10.2772V10.2774V10.2775V10.2777V10.2779V10.2781V10.2783V10.2785V10.2787V10.2789V10.279V10.2792V10.2794V10.2796V10.2798V10.28V10.2802V10.2804V10.2806V10.2808V10.2809V10.2811V10.2813V10.2815V10.2817V10.2819V10.2821V10.2823V10.2825V10.2827V10.2829V10.2831V10.2833V10.2835V10.2837V10.2839V10.2841V10.2843V10.2845V10.2847V10.2849V10.2851V10.2853V10.2855V10.2857V10.2859V10.2861V10.2863V10.2865V10.2867V10.2869V10.2871V10.2873V10.2875V10.2877V10.2879V10.2881V10.2883V10.2885V10.2887V10.2889V10.2891V10.2894V10.2896V10.2898V10.29V10.2902V10.2904V10.2906V10.2908V10.291V10.2912V10.2914V10.2917V10.2919C8.29097 10.3195 8.31336 10.3419 8.34097 10.3419H8.476C8.50362 10.3419 8.526 10.3195 8.526 10.2919C8.526 10.0413 8.58417 9.8233 8.69357 9.64637C8.80367 9.46831 8.96229 9.31869 9.16141 9.19814C9.36651 9.08218 9.60637 8.99107 9.88127 8.93527C10.1578 8.87915 10.4645 8.84842 10.7965 8.84842Z" fill="black" stroke="black" stroke-width="0.1" stroke-linecap="round" stroke-linejoin="round"/>
</svg>
