<svg width="25" height="26" viewBox="0 0 25 26" fill="none" xmlns="http://www.w3.org/2000/svg">
<g opacity="0.8">
<path fill-rule="evenodd" clip-rule="evenodd" d="M12.6672 1V25C12.6672 25 2.66157 22.2535 1.44922 4.93639C1.44922 4.93639 10.4071 2.86342 12.6672 1.00748V1Z" fill="#F4ECDD" stroke="black" stroke-miterlimit="2.61313" stroke-linecap="round" stroke-linejoin="round"/>
<path fill-rule="evenodd" clip-rule="evenodd" d="M12.667 1V25C12.667 25 22.6726 22.2535 23.885 4.93639C23.885 4.93639 14.927 2.86342 12.667 1.00748V1Z" fill="#F4ECDD" stroke="black" stroke-miterlimit="2.61313" stroke-linecap="round" stroke-linejoin="round"/>
<path d="M12.6672 18.8502C16.4128 18.8502 19.4493 15.8138 19.4493 12.0682C19.4493 8.32255 16.4128 5.28613 12.6672 5.28613C8.92161 5.28613 5.88519 8.32255 5.88519 12.0682C5.88519 15.8138 8.92161 18.8502 12.6672 18.8502Z" fill="#F4ECDD" stroke="black" stroke-miterlimit="2.61313" stroke-linecap="round" stroke-linejoin="round"/>
<path fill-rule="evenodd" clip-rule="evenodd" d="M11.3595 16.1831C11.7518 16.3836 12.1964 16.497 12.6671 16.497C13.1378 16.497 13.5824 16.3836 13.9747 16.1831C14.9249 15.7037 15.57 14.7186 15.57 13.5941C15.57 13.5244 15.57 13.4633 15.5612 13.3936C15.5612 13.3936 15.5612 13.3849 15.5612 13.3762H15.57C15.5787 13.1931 15.5351 11.8158 12.6671 7.64893C9.80784 11.8158 9.75553 13.1931 9.76425 13.3762H9.77297C9.77297 13.3936 9.77297 13.3936 9.77297 13.3936C9.76425 13.4633 9.76425 13.5244 9.76425 13.5941C9.76425 14.7274 10.4093 15.7124 11.3595 16.1831Z" fill="#F4ECDD" stroke="black" stroke-miterlimit="2.61313" stroke-linecap="round" stroke-linejoin="round"/>
</g>
</svg>
