<svg width="27" height="27" viewBox="0 0 27 27" fill="none" xmlns="http://www.w3.org/2000/svg">
<path d="M13.499 26.7625C20.8242 26.7625 26.7624 20.8243 26.7624 13.4992C26.7624 6.17404 20.8242 0.23584 13.499 0.23584C6.17391 0.23584 0.235718 6.17404 0.235718 13.4992C0.235718 20.8243 6.17391 26.7625 13.499 26.7625Z" stroke="black" stroke-opacity="0.25" stroke-width="0.7" stroke-miterlimit="2.61313" stroke-linecap="round" stroke-linejoin="round"/>
<path d="M13.499 23.3523C18.9407 23.3523 23.352 18.941 23.352 13.4994C23.352 8.05779 18.9407 3.64648 13.499 3.64648C8.05743 3.64648 3.64612 8.05779 3.64612 13.4994C3.64612 18.941 8.05743 23.3523 13.499 23.3523Z" stroke="black" stroke-opacity="0.5" stroke-width="0.7" stroke-miterlimit="2.61313" stroke-linecap="round" stroke-linejoin="round"/>
<path d="M13.4991 19.7514C16.9522 19.7514 19.7515 16.9521 19.7515 13.499C19.7515 10.0459 16.9522 7.24658 13.4991 7.24658C10.046 7.24658 7.2467 10.0459 7.2467 13.499C7.2467 16.9521 10.046 19.7514 13.4991 19.7514Z" stroke="black" stroke-opacity="0.75" stroke-width="0.7" stroke-miterlimit="2.61313" stroke-linecap="round" stroke-linejoin="round"/>
<path d="M13.4991 16.3849C15.0928 16.3849 16.3847 15.093 16.3847 13.4993C16.3847 11.9057 15.0928 10.6138 13.4991 10.6138C11.9054 10.6138 10.6135 11.9057 10.6135 13.4993C10.6135 15.093 11.9054 16.3849 13.4991 16.3849Z" stroke="black" stroke-width="0.7" stroke-miterlimit="2.61313" stroke-linecap="round" stroke-linejoin="round"/>
</svg>
