<svg width="150" height="204" viewBox="0 0 150 204" fill="none" xmlns="http://www.w3.org/2000/svg">
<path d="M100.603 152.195C98.0545 178.193 101.747 188.263 115.231 194.263" stroke="black" stroke-width="1.34116" stroke-miterlimit="2.61313" stroke-linecap="round" stroke-linejoin="round"/>
<path d="M49.0508 152.195C51.5998 178.193 47.9073 188.263 34.4236 194.263" stroke="black" stroke-width="1.34116" stroke-miterlimit="2.61313" stroke-linecap="round" stroke-linejoin="round"/>
<path d="M74.8277 186.168C76.9197 186.168 78.6156 184.474 78.6156 182.383C78.6156 180.292 76.9197 178.598 74.8277 178.598C72.7358 178.598 71.0399 180.292 71.0399 182.383C71.0399 184.474 72.7358 186.168 74.8277 186.168Z" fill="#C7E7DC"/>
<path d="M73.3368 186.068V185.516L76.1448 181.628H77.0168V185.436H77.8168V186.068H77.0168V187.356H76.2968V186.068H73.3368ZM76.3288 182.388L74.1768 185.436H76.3288V182.388Z" fill="black"/>
<path d="M81.8074 182.573C81.6883 182.573 81.6168 182.478 81.6168 182.383C81.6168 182.264 81.7121 182.193 81.8074 182.193V182.573ZM92.075 182.573H81.8074V182.193H92.075V182.573ZM91.7415 180.312L95.4817 182.359L91.7415 184.407V180.288V180.312ZM92.075 182.169C92.1941 182.169 92.2656 182.264 92.2656 182.359C92.2656 182.478 92.1703 182.55 92.075 182.55V182.169Z" fill="#999999"/>
<path d="M67.8472 182.193C67.9664 182.193 68.0378 182.288 68.0378 182.383C68.0378 182.502 67.9425 182.573 67.8472 182.573V182.193ZM57.5796 182.193H67.8472V182.573H57.5796V182.193ZM57.9131 184.454L54.173 182.407L57.9131 180.359V184.478V184.454ZM57.5796 182.597C57.4605 182.597 57.389 182.502 57.389 182.407C57.389 182.288 57.4843 182.216 57.5796 182.216V182.597Z" fill="#999999"/>
<path d="M52.3871 92.7488C53.7554 92.7488 54.8647 91.6403 54.8647 90.2728C54.8647 88.9054 53.7554 87.7969 52.3871 87.7969C51.0188 87.7969 49.9095 88.9054 49.9095 90.2728C49.9095 91.6403 51.0188 92.7488 52.3871 92.7488Z" fill="black"/>
<path d="M52.3865 94.7486C54.86 94.7486 56.8652 92.7447 56.8652 90.2728C56.8652 87.8009 54.86 85.7971 52.3865 85.7971C49.913 85.7971 47.9078 87.8009 47.9078 90.2728C47.9078 92.7447 49.913 94.7486 52.3865 94.7486Z" stroke="black" stroke-width="1.34116" stroke-miterlimit="2.61313" stroke-linecap="round" stroke-linejoin="round"/>
<path d="M50.6717 90.011C51.1979 90.011 51.6246 89.5846 51.6246 89.0587C51.6246 88.5327 51.1979 88.1064 50.6717 88.1064C50.1454 88.1064 49.7188 88.5327 49.7188 89.0587C49.7188 89.5846 50.1454 90.011 50.6717 90.011Z" fill="white"/>
<path fill-rule="evenodd" clip-rule="evenodd" d="M62.2013 93.344C64.9886 92.9393 58.1753 88.8682 57.8417 88.6301C56.3409 87.5588 54.3398 86.8922 52.1957 86.7732C47.3597 86.5113 45.3348 88.5111 41.8805 91.2251C41.8805 91.2251 43.1669 91.0347 44.5486 92.5821C45.9304 94.1296 51.2905 95.939 55.9359 94.82C60.5814 93.6773 62.2013 93.3678 62.2013 93.3678V93.344Z" stroke="black" stroke-width="1.34116" stroke-miterlimit="2.61313" stroke-linecap="round" stroke-linejoin="round"/>
<path d="M61.5578 91.5822C61.5578 91.5822 60.7002 92.4631 61.0576 93.5106" stroke="black" stroke-width="1.34116" stroke-miterlimit="2.61313" stroke-linecap="round" stroke-linejoin="round"/>
<path d="M62.6064 90.3204C62.6064 90.3204 59.4618 84.8447 52.0767 84.7495C44.6917 84.6781 41.0229 89.1776 41.0229 89.1776" stroke="black" stroke-width="1.34116" stroke-miterlimit="2.61313" stroke-linecap="round" stroke-linejoin="round"/>
<path fill-rule="evenodd" clip-rule="evenodd" d="M63.5112 82.4879C63.5112 82.4879 64.8215 80.7738 61.0337 78.7978C61.0337 78.7978 47.1926 74.7029 43.9766 75.1077C40.7605 75.5124 35.7101 79.5358 35.7101 79.5358C35.7101 79.5358 41.3561 77.3694 47.7882 79.0835C54.2204 80.7976 62.868 83.1783 63.5351 82.4879H63.5112Z" stroke="black" stroke-width="1.34116" stroke-miterlimit="2.61313" stroke-linecap="round" stroke-linejoin="round"/>
<path d="M74.5652 122.246C74.5652 122.246 72.7547 122.294 72.0162 121.46C71.2777 120.627 69.4195 119.889 67.9663 119.984" stroke="black" stroke-width="1.34116" stroke-miterlimit="2.61313" stroke-linecap="round" stroke-linejoin="round"/>
<path d="M65.8697 115.913C65.8697 115.913 63.416 121.032 68.514 121.865" stroke="black" stroke-width="1.34116" stroke-miterlimit="2.61313" stroke-linecap="round" stroke-linejoin="round"/>
<path d="M66.8469 88.3683C66.8469 88.3683 71.2541 92.2727 70.3727 103.01" stroke="black" stroke-width="1.34116" stroke-miterlimit="2.61313" stroke-linecap="round" stroke-linejoin="round"/>
<path fill-rule="evenodd" clip-rule="evenodd" d="M74.8272 132.055C74.8272 132.055 71.2299 130.293 68.7047 131.769C66.1557 133.245 58.9374 136.84 58.9374 136.84C58.9374 136.84 62.1534 146.696 74.8272 146.696C87.5009 146.696 90.7169 136.84 90.7169 136.84C90.7169 136.84 83.4986 133.221 80.9496 131.769C78.4006 130.293 74.8272 132.055 74.8272 132.055V132.055Z" stroke="black" stroke-width="1.34116" stroke-miterlimit="2.61313" stroke-linecap="round" stroke-linejoin="round"/>
<path d="M74.827 138.054C74.827 138.054 73.9218 138.006 72.8021 137.53C71.6824 137.078 66.0602 136.84 63.3206 137.483C60.581 138.125 59.7472 136.602 56.817 136.602" stroke="black" stroke-width="1.34116" stroke-miterlimit="2.61313" stroke-linecap="round" stroke-linejoin="round"/>
<path d="M23.9182 88.6301C23.9182 88.6301 29.7548 113.175 32.8756 125.96C35.9963 138.744 36.7825 140.887 43.6196 147.339C50.4568 153.79 63.5831 165.885 74.8036 165.885" stroke="black" stroke-width="1.34116" stroke-miterlimit="2.61313" stroke-linecap="round" stroke-linejoin="round"/>
<path d="M19.7019 85.2733C19.7019 85.2733 15.9379 85.3209 17.2005 90.7966C18.4631 96.2723 23.0609 104.176 23.6565 110.033C24.2521 115.889 26.539 117.627 30.7795 117.246" stroke="black" stroke-width="1.34116" stroke-miterlimit="2.61313" stroke-linecap="round" stroke-linejoin="round"/>
<path d="M20.6783 93.4154C20.6783 93.4154 21.2977 90.7728 22.5365 91.6537C23.7753 92.5346 26.3958 99.4625 26.3958 99.4625C26.3958 99.4625 24.7282 102.986 25.6573 104.057C26.5864 105.129 28.3969 107.319 28.3969 107.319" stroke="black" stroke-width="1.34116" stroke-miterlimit="2.61313" stroke-linecap="round" stroke-linejoin="round"/>
<path d="M97.2924 92.7488C98.6607 92.7488 99.77 91.6403 99.77 90.2728C99.77 88.9054 98.6607 87.7969 97.2924 87.7969C95.9241 87.7969 94.8148 88.9054 94.8148 90.2728C94.8148 91.6403 95.9241 92.7488 97.2924 92.7488Z" fill="black"/>
<path d="M97.2923 94.7486C99.7658 94.7486 101.771 92.7447 101.771 90.2728C101.771 87.8009 99.7658 85.7971 97.2923 85.7971C94.8188 85.7971 92.8136 87.8009 92.8136 90.2728C92.8136 92.7447 94.8188 94.7486 97.2923 94.7486Z" stroke="black" stroke-width="1.34116" stroke-miterlimit="2.61313" stroke-linecap="round" stroke-linejoin="round"/>
<path d="M95.601 90.011C96.1273 90.011 96.5539 89.5846 96.5539 89.0587C96.5539 88.5327 96.1273 88.1064 95.601 88.1064C95.0747 88.1064 94.6481 88.5327 94.6481 89.0587C94.6481 89.5846 95.0747 90.011 95.601 90.011Z" fill="white"/>
<path fill-rule="evenodd" clip-rule="evenodd" d="M87.4538 93.344C84.6665 92.9393 91.4798 88.8682 91.8134 88.6301C93.3142 87.5588 95.3153 86.8922 97.4594 86.7732C102.295 86.5113 104.32 88.5111 107.775 91.2251C107.775 91.2251 106.488 91.0347 105.106 92.5821C103.725 94.1296 98.3646 95.939 93.7192 94.82C89.0737 93.6773 87.4538 93.3678 87.4538 93.3678V93.344Z" stroke="black" stroke-width="1.34116" stroke-miterlimit="2.61313" stroke-linecap="round" stroke-linejoin="round"/>
<path d="M88.0964 91.5822C88.0964 91.5822 88.9541 92.4631 88.5967 93.5106" stroke="black" stroke-width="1.34116" stroke-miterlimit="2.61313" stroke-linecap="round" stroke-linejoin="round"/>
<path d="M87.0486 90.3204C87.0486 90.3204 90.1932 84.8447 97.5782 84.7495C104.963 84.6781 108.632 89.1776 108.632 89.1776" stroke="black" stroke-width="1.34116" stroke-miterlimit="2.61313" stroke-linecap="round" stroke-linejoin="round"/>
<path fill-rule="evenodd" clip-rule="evenodd" d="M86.1428 82.4879C86.1428 82.4879 84.8326 80.7738 88.6204 78.7978C88.6204 78.7978 102.461 74.7029 105.677 75.1077C108.894 75.5124 113.944 79.5358 113.944 79.5358C113.944 79.5358 108.298 77.3694 101.866 79.0835C95.4337 80.7976 86.786 83.1783 86.119 82.4879H86.1428Z" stroke="black" stroke-width="1.34116" stroke-miterlimit="2.61313" stroke-linecap="round" stroke-linejoin="round"/>
<path d="M75.0895 122.246C75.0895 122.246 76.9 122.294 77.6385 121.46C78.377 120.627 80.2352 119.889 81.6884 119.984" stroke="black" stroke-width="1.34116" stroke-miterlimit="2.61313" stroke-linecap="round" stroke-linejoin="round"/>
<path d="M83.7848 115.913C83.7848 115.913 86.2386 121.032 81.1405 121.865" stroke="black" stroke-width="1.34116" stroke-miterlimit="2.61313" stroke-linecap="round" stroke-linejoin="round"/>
<path d="M82.8078 88.3683C82.8078 88.3683 78.4006 92.2727 79.2821 103.01" stroke="black" stroke-width="1.34116" stroke-miterlimit="2.61313" stroke-linecap="round" stroke-linejoin="round"/>
<path d="M74.8271 138.054C74.8271 138.054 75.7324 138.006 76.8521 137.53C77.9717 137.078 83.5939 136.84 86.3335 137.483C89.0732 138.125 89.907 136.602 92.8371 136.602" stroke="black" stroke-width="1.34116" stroke-miterlimit="2.61313" stroke-linecap="round" stroke-linejoin="round"/>
<path d="M125.737 88.6301C125.737 88.6301 119.9 113.175 116.779 125.96C113.659 138.744 112.872 140.887 106.035 147.339C99.1982 153.79 86.0718 165.885 74.8513 165.885" stroke="black" stroke-width="1.34116" stroke-miterlimit="2.61313" stroke-linecap="round" stroke-linejoin="round"/>
<path d="M129.953 85.2733C129.953 85.2733 133.717 85.3209 132.454 90.7966C131.192 96.2723 126.594 104.176 125.998 110.033C125.403 115.889 123.116 117.627 118.875 117.246" stroke="black" stroke-width="1.34116" stroke-miterlimit="2.61313" stroke-linecap="round" stroke-linejoin="round"/>
<path d="M128.977 93.4154C128.977 93.4154 128.358 90.7728 127.119 91.6537C125.88 92.5346 123.26 99.4625 123.26 99.4625C123.26 99.4625 124.927 102.986 123.998 104.057C123.069 105.129 121.259 107.319 121.259 107.319" stroke="black" stroke-width="1.34116" stroke-miterlimit="2.61313" stroke-linecap="round" stroke-linejoin="round"/>
<path d="M125.737 88.6302C128.286 86.178 129.954 85.2496 129.954 85.2496C137.243 73.9649 126.285 37.6589 117.447 24.2316C107.798 9.5664 86.6914 3.51937 73.2792 10.733" stroke="black" stroke-width="1.34116" stroke-miterlimit="2.61313" stroke-linecap="round" stroke-linejoin="round"/>
<path d="M75.0419 25.9219C75.0419 25.9219 72.9931 41.6347 76.1139 42.6108C78.9488 39.3968 90.8602 32.2547 102.795 42.2299C110.8 48.9197 112.277 56.5856 121.854 65.3705C134.126 75.2348 126.03 87.6538 126.03 87.6538" stroke="black" stroke-width="1.34116" stroke-miterlimit="2.61313" stroke-linecap="round" stroke-linejoin="round"/>
<path d="M108.744 48.4359C108.744 48.4359 116.088 66.5132 121.163 71.2985C126.237 76.0837 125.737 88.6301 125.737 88.6301" stroke="black" stroke-width="1.34116" stroke-miterlimit="2.61313" stroke-linecap="round" stroke-linejoin="round"/>
<path d="M77.6383 33.5878C91.1935 22.5174 107.536 29.2549 114.564 45.42C119.257 56.2047 125.594 60.728 125.594 60.728" stroke="black" stroke-width="1.34116" stroke-miterlimit="2.61313" stroke-linecap="round" stroke-linejoin="round"/>
<path d="M23.9176 88.6302C21.3686 86.1781 19.701 85.2496 19.701 85.2496C12.4113 73.9649 23.3697 37.6589 32.208 24.2317C43.0473 7.75706 58.2462 3.16227 76.4945 12.6137" stroke="black" stroke-width="1.34116" stroke-miterlimit="2.61313" stroke-linecap="round" stroke-linejoin="round"/>
<path d="M73.5403 42.6108C70.7054 39.3969 58.794 32.2547 46.8588 42.2299C38.8544 48.9197 37.3774 56.5857 27.8006 65.3705C15.528 75.017 23.6241 88.3074 23.6241 88.3074" stroke="black" stroke-width="1.34116" stroke-miterlimit="2.61313" stroke-linecap="round" stroke-linejoin="round"/>
<path d="M41.1297 48.436C41.1297 48.436 33.5661 66.5133 28.4918 71.2985C23.4176 76.0838 23.9179 88.6302 23.9179 88.6302" stroke="black" stroke-width="1.34116" stroke-miterlimit="2.61313" stroke-linecap="round" stroke-linejoin="round"/>
<path d="M72.0158 33.5879C58.4606 22.5175 42.1182 29.2549 35.0905 45.42C30.3974 56.2047 24.0605 60.7281 24.0605 60.7281" stroke="black" stroke-width="1.34116" stroke-miterlimit="2.61313" stroke-linecap="round" stroke-linejoin="round"/>
<path d="M85.1187 50.5862C84.9996 50.5862 84.9281 50.491 84.9281 50.3958C84.9281 50.2767 85.0234 50.2053 85.1187 50.2053V50.5862ZM99.6267 50.5862H85.1187V50.2053H99.6267V50.5862ZM99.2932 48.3245L103.033 50.3719L99.2932 52.4194V48.3007V48.3245ZM99.6267 50.1815C99.7459 50.1815 99.8173 50.2767 99.8173 50.3719C99.8173 50.491 99.722 50.5624 99.6267 50.5624V50.1815Z" fill="#999999"/>
<path d="M74.8277 73.7744C76.9197 73.7744 78.6156 72.0797 78.6156 69.9891C78.6156 67.8985 76.9197 66.2037 74.8277 66.2037C72.7358 66.2037 71.0399 67.8985 71.0399 69.9891C71.0399 72.0797 72.7358 73.7744 74.8277 73.7744Z" fill="#C7E7DC"/>
<path d="M74.0329 70.305C74.0702 69.8143 74.2595 69.4303 74.6009 69.153C74.9422 68.8757 75.3849 68.737 75.9289 68.737C76.2915 68.737 76.6035 68.8037 76.8649 68.937C77.1315 69.065 77.3315 69.241 77.4649 69.465C77.6035 69.689 77.6729 69.9423 77.6729 70.225C77.6729 70.5557 77.5769 70.841 77.3849 71.081C77.1982 71.321 76.9529 71.4757 76.6489 71.545V71.585C76.9955 71.6703 77.2702 71.8383 77.4729 72.089C77.6755 72.3397 77.7769 72.6677 77.7769 73.073C77.7769 73.377 77.7075 73.6517 77.5689 73.897C77.4302 74.137 77.2222 74.3263 76.9449 74.465C76.6675 74.6037 76.3342 74.673 75.9449 74.673C75.3795 74.673 74.9155 74.5263 74.5529 74.233C74.1902 73.9343 73.9875 73.513 73.9449 72.969H74.6489C74.6862 73.289 74.8169 73.5503 75.0409 73.753C75.2649 73.9557 75.5635 74.057 75.9369 74.057C76.3102 74.057 76.5929 73.961 76.7849 73.769C76.9822 73.5717 77.0809 73.3183 77.0809 73.009C77.0809 72.609 76.9475 72.321 76.6809 72.145C76.4142 71.969 76.0115 71.881 75.4729 71.881H75.2889V71.273H75.4809C75.9715 71.2677 76.3422 71.1877 76.5929 71.033C76.8435 70.873 76.9689 70.6277 76.9689 70.297C76.9689 70.0143 76.8755 69.7877 76.6889 69.617C76.5075 69.4463 76.2462 69.361 75.9049 69.361C75.5742 69.361 75.3075 69.4463 75.1049 69.617C74.9022 69.7877 74.7822 70.017 74.7449 70.305H74.0329Z" fill="black"/>
<path d="M74.7912 63.9659C76.8832 63.9659 78.5791 62.2711 78.5791 60.1806C78.5791 58.09 76.8832 56.3952 74.7912 56.3952C72.6993 56.3952 71.0034 58.09 71.0034 60.1806C71.0034 62.2711 72.6993 63.9659 74.7912 63.9659Z" fill="#C7E7DC"/>
<path d="M74.0329 60.4963C74.0702 60.0057 74.2595 59.6217 74.6009 59.3443C74.9422 59.067 75.3849 58.9283 75.9289 58.9283C76.2915 58.9283 76.6035 58.995 76.8649 59.1283C77.1315 59.2563 77.3315 59.4323 77.4649 59.6563C77.6035 59.8803 77.6729 60.1337 77.6729 60.4163C77.6729 60.747 77.5769 61.0323 77.3849 61.2723C77.1982 61.5123 76.9529 61.667 76.6489 61.7363V61.7763C76.9955 61.8617 77.2702 62.0297 77.4729 62.2803C77.6755 62.531 77.7769 62.859 77.7769 63.2643C77.7769 63.5683 77.7075 63.843 77.5689 64.0883C77.4302 64.3283 77.2222 64.5177 76.9449 64.6563C76.6675 64.795 76.3342 64.8643 75.9449 64.8643C75.3795 64.8643 74.9155 64.7177 74.5529 64.4243C74.1902 64.1257 73.9875 63.7043 73.9449 63.1603H74.6489C74.6862 63.4803 74.8169 63.7417 75.0409 63.9443C75.2649 64.147 75.5635 64.2483 75.9369 64.2483C76.3102 64.2483 76.5929 64.1523 76.7849 63.9603C76.9822 63.763 77.0809 63.5097 77.0809 63.2003C77.0809 62.8003 76.9475 62.5123 76.6809 62.3363C76.4142 62.1603 76.0115 62.0723 75.4729 62.0723H75.2889V61.4643H75.4809C75.9715 61.459 76.3422 61.379 76.5929 61.2243C76.8435 61.0643 76.9689 60.819 76.9689 60.4883C76.9689 60.2057 76.8755 59.979 76.6889 59.8083C76.5075 59.6377 76.2462 59.5523 75.9049 59.5523C75.5742 59.5523 75.3075 59.6377 75.1049 59.8083C74.9022 59.979 74.7822 60.2083 74.7449 60.4963H74.0329Z" fill="black"/>
<path d="M74.8277 54.1811C76.9197 54.1811 78.6156 52.4863 78.6156 50.3957C78.6156 48.3051 76.9197 46.6104 74.8277 46.6104C72.7358 46.6104 71.0399 48.3051 71.0399 50.3957C71.0399 52.4863 72.7358 54.1811 74.8277 54.1811Z" fill="#C7E7DC"/>
<path d="M74.0329 50.7116C74.0702 50.2209 74.2595 49.8369 74.6009 49.5596C74.9422 49.2823 75.3849 49.1436 75.9289 49.1436C76.2915 49.1436 76.6035 49.2103 76.8649 49.3436C77.1315 49.4716 77.3315 49.6476 77.4649 49.8716C77.6035 50.0956 77.6729 50.3489 77.6729 50.6316C77.6729 50.9623 77.5769 51.2476 77.3849 51.4876C77.1982 51.7276 76.9529 51.8823 76.6489 51.9516V51.9916C76.9955 52.0769 77.2702 52.2449 77.4729 52.4956C77.6755 52.7463 77.7769 53.0743 77.7769 53.4796C77.7769 53.7836 77.7075 54.0583 77.5689 54.3036C77.4302 54.5436 77.2222 54.7329 76.9449 54.8716C76.6675 55.0103 76.3342 55.0796 75.9449 55.0796C75.3795 55.0796 74.9155 54.9329 74.5529 54.6396C74.1902 54.3409 73.9875 53.9196 73.9449 53.3756H74.6489C74.6862 53.6956 74.8169 53.9569 75.0409 54.1596C75.2649 54.3623 75.5635 54.4636 75.9369 54.4636C76.3102 54.4636 76.5929 54.3676 76.7849 54.1756C76.9822 53.9783 77.0809 53.7249 77.0809 53.4156C77.0809 53.0156 76.9475 52.7276 76.6809 52.5516C76.4142 52.3756 76.0115 52.2876 75.4729 52.2876H75.2889V51.6796H75.4809C75.9715 51.6743 76.3422 51.5943 76.5929 51.4396C76.8435 51.2796 76.9689 51.0343 76.9689 50.7036C76.9689 50.4209 76.8755 50.1943 76.6889 50.0236C76.5075 49.8529 76.2462 49.7676 75.9049 49.7676C75.5742 49.7676 75.3075 49.8529 75.1049 50.0236C74.9022 50.1943 74.7822 50.4236 74.7449 50.7116H74.0329Z" fill="black"/>
<path d="M74.6367 93.8439C74.6367 93.7249 74.732 93.6534 74.8273 93.6534C74.9464 93.6534 75.0179 93.7487 75.0179 93.8439H74.6367ZM74.6367 115.223V93.8439H75.0179V115.223H74.6367ZM76.8999 114.889L74.8511 118.627L72.8024 114.889H76.9237H76.8999ZM75.0417 115.223C75.0417 115.342 74.9464 115.413 74.8511 115.413C74.732 115.413 74.6605 115.318 74.6605 115.223H75.0417Z" fill="#999999"/>
<path d="M74.8277 90.8204C76.9197 90.8204 78.6156 89.1256 78.6156 87.035C78.6156 84.9445 76.9197 83.2497 74.8277 83.2497C72.7358 83.2497 71.0399 84.9445 71.0399 87.035C71.0399 89.1256 72.7358 90.8204 74.8277 90.8204Z" fill="#C7E7DC"/>
<path d="M73.9609 91.095C74.6382 90.551 75.1689 90.1056 75.5529 89.759C75.9369 89.407 76.2595 89.0416 76.5209 88.663C76.7875 88.279 76.9209 87.903 76.9209 87.535C76.9209 87.1883 76.8355 86.9163 76.6649 86.719C76.4995 86.5163 76.2302 86.415 75.8569 86.415C75.4942 86.415 75.2115 86.5296 75.0089 86.759C74.8115 86.983 74.7049 87.2843 74.6889 87.663H73.9849C74.0062 87.0656 74.1875 86.6043 74.5289 86.279C74.8702 85.9536 75.3102 85.791 75.8489 85.791C76.3982 85.791 76.8329 85.943 77.1529 86.247C77.4782 86.551 77.6409 86.9696 77.6409 87.503C77.6409 87.9456 77.5075 88.3776 77.2409 88.799C76.9795 89.215 76.6809 89.583 76.3449 89.903C76.0089 90.2176 75.5795 90.5856 75.0569 91.007H77.8089V91.615H73.9609V91.095Z" fill="black"/>
<path d="M96.9821 102.415C96.863 102.415 96.7915 102.319 96.7915 102.224C96.7915 102.105 96.8868 102.034 96.9821 102.034V102.415ZM112.419 102.415H96.9821V102.034H112.419V102.415ZM112.086 100.153L115.826 102.2L112.086 104.248V100.129V100.153ZM112.419 102.01C112.538 102.01 112.61 102.105 112.61 102.2C112.61 102.319 112.515 102.391 112.419 102.391V102.01Z" fill="#999999"/>
<path d="M89.6924 106.009C91.7843 106.009 93.4802 104.315 93.4802 102.224C93.4802 100.133 91.7843 98.4387 89.6924 98.4387C87.6004 98.4387 85.9045 100.133 85.9045 102.224C85.9045 104.315 87.6004 106.009 89.6924 106.009Z" fill="#C7E7DC"/>
<path d="M89.1869 101.653V100.989H90.6909V106.773H89.9549V101.653H89.1869Z" fill="black"/>
<path d="M96.9821 110.914C96.863 110.914 96.7915 110.819 96.7915 110.723C96.7915 110.604 96.8868 110.533 96.9821 110.533V110.914ZM112.419 110.914H96.9821V110.533H112.419V110.914ZM112.086 108.652L115.826 110.7L112.086 112.747V108.628V108.652ZM112.419 110.509C112.538 110.509 112.61 110.604 112.61 110.7C112.61 110.819 112.515 110.89 112.419 110.89V110.509Z" fill="#999999"/>
<path d="M89.6924 114.485C91.7843 114.485 93.4802 112.79 93.4802 110.699C93.4802 108.609 91.7843 106.914 89.6924 106.914C87.6004 106.914 85.9045 108.609 85.9045 110.699C85.9045 112.79 87.6004 114.485 89.6924 114.485Z" fill="#C7E7DC"/>
<path d="M89.1869 110.152V109.488H90.6909V115.272H89.9549V110.152H89.1869Z" fill="black"/>
<path d="M96.9821 119.389C96.863 119.389 96.7915 119.294 96.7915 119.199C96.7915 119.08 96.8868 119.008 96.9821 119.008V119.389ZM112.419 119.389H96.9821V119.008H112.419V119.389ZM112.086 117.127L115.826 119.175L112.086 121.222V117.104V117.127ZM112.419 118.984C112.538 118.984 112.61 119.08 112.61 119.175C112.61 119.294 112.515 119.365 112.419 119.365V118.984Z" fill="#999999"/>
<path d="M89.6924 122.984C91.7843 122.984 93.4802 121.289 93.4802 119.199C93.4802 117.108 91.7843 115.413 89.6924 115.413C87.6004 115.413 85.9045 117.108 85.9045 119.199C85.9045 121.289 87.6004 122.984 89.6924 122.984Z" fill="#C7E7DC"/>
<path d="M89.1869 118.627V117.963H90.6909V123.747H89.9549V118.627H89.1869Z" fill="black"/>
<path d="M52.6717 102.01C52.7908 102.01 52.8623 102.105 52.8623 102.2C52.8623 102.319 52.767 102.391 52.6717 102.391V102.01ZM37.2345 102.01H52.6717V102.391H37.2345V102.01ZM37.5681 104.271L33.8279 102.224L37.5681 100.177V104.295V104.271ZM37.2345 102.415C37.1154 102.415 37.044 102.319 37.044 102.224C37.044 102.105 37.1392 102.034 37.2345 102.034V102.415Z" fill="#999999"/>
<path d="M59.9623 106.009C62.0542 106.009 63.7501 104.315 63.7501 102.224C63.7501 100.133 62.0542 98.4387 59.9623 98.4387C57.8703 98.4387 56.1744 100.133 56.1744 102.224C56.1744 104.315 57.8703 106.009 59.9623 106.009Z" fill="#C7E7DC"/>
<path d="M59.4322 101.653V100.989H60.9362V106.773H60.2002V101.653H59.4322Z" fill="black"/>
<path d="M52.6717 110.509C52.7908 110.509 52.8623 110.604 52.8623 110.699C52.8623 110.818 52.767 110.89 52.6717 110.89V110.509ZM37.2345 110.509H52.6717V110.89H37.2345V110.509ZM37.5681 112.771L33.8279 110.723L37.5681 108.676V112.794V112.771ZM37.2345 110.914C37.1154 110.914 37.044 110.818 37.044 110.723C37.044 110.604 37.1392 110.533 37.2345 110.533V110.914Z" fill="#999999"/>
<path d="M59.9623 114.485C62.0542 114.485 63.7501 112.79 63.7501 110.699C63.7501 108.609 62.0542 106.914 59.9623 106.914C57.8703 106.914 56.1744 108.609 56.1744 110.699C56.1744 112.79 57.8703 114.485 59.9623 114.485Z" fill="#C7E7DC"/>
<path d="M59.4322 110.152V109.488H60.9362V115.272H60.2002V110.152H59.4322Z" fill="black"/>
<path d="M52.6717 119.008C52.7908 119.008 52.8623 119.103 52.8623 119.199C52.8623 119.318 52.767 119.389 52.6717 119.389V119.008ZM37.2345 119.008H52.6717V119.389H37.2345V119.008ZM37.5681 121.27L33.8279 119.222L37.5681 117.175V121.294V121.27ZM37.2345 119.413C37.1154 119.413 37.044 119.318 37.044 119.222C37.044 119.103 37.1392 119.032 37.2345 119.032V119.413Z" fill="#999999"/>
<path d="M59.9623 122.984C62.0542 122.984 63.7501 121.289 63.7501 119.199C63.7501 117.108 62.0542 115.413 59.9623 115.413C57.8703 115.413 56.1744 117.108 56.1744 119.199C56.1744 121.289 57.8703 122.984 59.9623 122.984Z" fill="#C7E7DC"/>
<path d="M59.4322 118.627V117.963H60.9362V123.747H60.2002V118.627H59.4322Z" fill="black"/>
<path d="M74.8277 130.817C76.9197 130.817 78.6156 129.122 78.6156 127.031C78.6156 124.941 76.9197 123.246 74.8277 123.246C72.7358 123.246 71.0399 124.941 71.0399 127.031C71.0399 129.122 72.7358 130.817 74.8277 130.817Z" fill="#C7E7DC"/>
<path d="M73.1775 130.387V129.835L75.9855 125.947H76.8575V129.755H77.6575V130.387H76.8575V131.675H76.1375V130.387H73.1775ZM76.1695 126.707L74.0175 129.755H76.1695V126.707Z" fill="black"/>
<path d="M82.4026 127.222C82.2835 127.222 82.212 127.126 82.212 127.031C82.212 126.912 82.3073 126.841 82.4026 126.841V127.222ZM97.8398 127.222H82.4026V126.841H97.8398V127.222ZM97.5063 124.96L101.246 127.007L97.5063 129.055V124.936V124.96ZM97.8398 126.817C97.9589 126.817 98.0304 126.912 98.0304 127.007C98.0304 127.126 97.9351 127.198 97.8398 127.198V126.817Z" fill="#999999"/>
<path d="M67.2521 126.841C67.3712 126.841 67.4427 126.936 67.4427 127.031C67.4427 127.15 67.3474 127.222 67.2521 127.222V126.841ZM51.815 126.841H67.2521V127.222H51.815V126.841ZM52.1485 129.102L48.4083 127.055L52.1485 125.008V129.126V129.102ZM51.815 127.245C51.6959 127.245 51.6244 127.15 51.6244 127.055C51.6244 126.936 51.7197 126.865 51.815 126.865V127.245Z" fill="#999999"/>
<path d="M79.2589 156.909C79.2589 156.79 79.3542 156.719 79.4495 156.719C79.5686 156.719 79.6401 156.814 79.6401 156.909H79.2589ZM79.2589 159.933V156.909H79.6401V159.933H79.2589ZM81.5221 159.599L79.4733 163.337L77.4246 159.599H81.5459H81.5221ZM79.6639 159.933C79.6639 160.052 79.5686 160.123 79.4733 160.123C79.3542 160.123 79.2827 160.028 79.2827 159.933H79.6639Z" fill="#999999"/>
<path d="M79.5259 155.125C81.6178 155.125 83.3137 153.43 83.3137 151.34C83.3137 149.249 81.6178 147.554 79.5259 147.554C77.4339 147.554 75.738 149.249 75.738 151.34C75.738 153.43 77.4339 155.125 79.5259 155.125Z" fill="#C7E7DC"/>
<path d="M81.7757 150.743H78.9677V152.567C79.0903 152.397 79.2717 152.258 79.5117 152.151C79.7517 152.039 80.0103 151.983 80.2877 151.983C80.7303 151.983 81.0903 152.077 81.3677 152.263C81.645 152.445 81.8423 152.682 81.9597 152.975C82.0823 153.263 82.1437 153.57 82.1437 153.895C82.1437 154.279 82.0717 154.623 81.9277 154.927C81.7837 155.231 81.5623 155.471 81.2637 155.647C80.9703 155.823 80.605 155.911 80.1677 155.911C79.6077 155.911 79.1543 155.767 78.8077 155.479C78.461 155.191 78.2503 154.807 78.1757 154.327H78.8877C78.957 154.631 79.1037 154.869 79.3277 155.039C79.5517 155.21 79.8343 155.295 80.1757 155.295C80.597 155.295 80.9143 155.17 81.1277 154.919C81.341 154.663 81.4477 154.327 81.4477 153.911C81.4477 153.495 81.341 153.175 81.1277 152.951C80.9143 152.722 80.5997 152.607 80.1837 152.607C79.901 152.607 79.653 152.677 79.4397 152.815C79.2317 152.949 79.0797 153.133 78.9837 153.367H78.2957V150.103H81.7757V150.743Z" fill="black"/>
<path d="M70.0148 156.909C70.0148 156.79 70.1101 156.719 70.2054 156.719C70.3245 156.719 70.3959 156.814 70.3959 156.909H70.0148ZM70.0148 159.933V156.909H70.3959V159.933H70.0148ZM72.2779 159.599L70.2292 163.337L68.1804 159.599H72.3018H72.2779ZM70.4198 159.933C70.4198 160.052 70.3245 160.123 70.2292 160.123C70.1101 160.123 70.0386 160.028 70.0386 159.933H70.4198Z" fill="#999999"/>
<path d="M70.0573 155.29C72.1493 155.29 73.8452 153.596 73.8452 151.505C73.8452 149.414 72.1493 147.72 70.0573 147.72C67.9654 147.72 66.2695 149.414 66.2695 151.505C66.2695 153.596 67.9654 155.29 70.0573 155.29Z" fill="#C7E7DC"/>
<path d="M72.3072 150.743H69.4992V152.567C69.6218 152.397 69.8032 152.258 70.0432 152.151C70.2832 152.039 70.5418 151.983 70.8192 151.983C71.2618 151.983 71.6218 152.077 71.8992 152.263C72.1765 152.445 72.3738 152.682 72.4912 152.975C72.6138 153.263 72.6752 153.57 72.6752 153.895C72.6752 154.279 72.6032 154.623 72.4592 154.927C72.3152 155.231 72.0938 155.471 71.7952 155.647C71.5018 155.823 71.1365 155.911 70.6992 155.911C70.1392 155.911 69.6858 155.767 69.3392 155.479C68.9925 155.191 68.7818 154.807 68.7072 154.327H69.4192C69.4885 154.631 69.6352 154.869 69.8592 155.039C70.0832 155.21 70.3658 155.295 70.7072 155.295C71.1285 155.295 71.4458 155.17 71.6592 154.919C71.8725 154.663 71.9792 154.327 71.9792 153.911C71.9792 153.495 71.8725 153.175 71.6592 152.951C71.4458 152.722 71.1312 152.607 70.7152 152.607C70.4325 152.607 70.1845 152.677 69.9712 152.815C69.7632 152.949 69.6112 153.133 69.5152 153.367H68.8272V150.103H72.3072V150.743Z" fill="black"/>
<path d="M85.9291 150.957C85.8338 151.029 85.7147 151.005 85.667 150.91C85.5956 150.815 85.6194 150.696 85.7147 150.648L85.9529 150.957H85.9291ZM103.201 138.078L85.9291 150.957L85.6909 150.648L102.962 137.768L103.201 138.078ZM101.581 136.459L105.821 135.864L104.058 139.744L101.604 136.435L101.581 136.459ZM102.962 137.768C103.058 137.697 103.177 137.721 103.224 137.816C103.296 137.911 103.272 138.03 103.177 138.078L102.939 137.768H102.962Z" fill="#999999"/>
<path d="M63.9878 150.648C64.0831 150.719 64.0831 150.838 64.0354 150.91C63.9639 151.005 63.8448 151.005 63.7734 150.957L64.0116 150.648H63.9878ZM46.7163 137.768L63.9878 150.648L63.7495 150.957L46.478 138.078L46.7163 137.768ZM45.6204 139.768L43.8575 135.887L48.098 136.483L45.6443 139.792L45.6204 139.768ZM46.478 138.078C46.3828 138.006 46.3828 137.887 46.4304 137.816C46.5019 137.721 46.621 137.721 46.6925 137.768L46.4542 138.078H46.478Z" fill="#999999"/>
<path d="M74.8277 176.907C76.9197 176.907 78.6156 175.213 78.6156 173.122C78.6156 171.031 76.9197 169.337 74.8277 169.337C72.7358 169.337 71.0399 171.031 71.0399 173.122C71.0399 175.213 72.7358 176.907 74.8277 176.907Z" fill="#C7E7DC"/>
<path d="M73.3368 176.807V176.255L76.1448 172.367H77.0168V176.175H77.8168V176.807H77.0168V178.095H76.2968V176.807H73.3368ZM76.3288 173.127L74.1768 176.175H76.3288V173.127Z" fill="black"/>
<path d="M81.8074 173.312C81.6883 173.312 81.6168 173.217 81.6168 173.122C81.6168 173.003 81.7121 172.932 81.8074 172.932V173.312ZM92.075 173.312H81.8074V172.932H92.075V173.312ZM91.7415 171.051L95.4817 173.098L91.7415 175.146V171.027V171.051ZM92.075 172.908C92.1941 172.908 92.2656 173.003 92.2656 173.098C92.2656 173.217 92.1703 173.289 92.075 173.289V172.908Z" fill="#999999"/>
<path d="M67.8472 172.908C67.9664 172.908 68.0378 173.003 68.0378 173.098C68.0378 173.217 67.9425 173.289 67.8472 173.289V172.908ZM57.5796 172.908H67.8472V173.289H57.5796V172.908ZM57.9131 175.169L54.173 173.122L57.9131 171.075V175.193V175.169ZM57.5796 173.312C57.4605 173.312 57.389 173.217 57.389 173.122C57.389 173.003 57.4843 172.931 57.5796 172.931V173.312Z" fill="#999999"/>
<path d="M85.1187 60.3709C84.9996 60.3709 84.9281 60.2757 84.9281 60.1805C84.9281 60.0614 85.0234 59.99 85.1187 59.99V60.3709ZM102.914 60.3709H85.1187V59.99H102.914V60.3709ZM102.581 58.1093L106.321 60.1567L102.581 62.2041V58.0854V58.1093ZM102.914 59.9662C103.033 59.9662 103.105 60.0614 103.105 60.1567C103.105 60.2757 103.01 60.3471 102.914 60.3471V59.9662Z" fill="#999999"/>
<path d="M85.1187 70.1795C84.9996 70.1795 84.9281 70.0843 84.9281 69.9891C84.9281 69.87 85.0234 69.7986 85.1187 69.7986V70.1795ZM106.821 70.1795H85.1187V69.7986H106.821V70.1795ZM106.488 67.9179L110.228 69.9653L106.488 72.0127V67.894V67.9179ZM106.821 69.7748C106.94 69.7748 107.012 69.87 107.012 69.9653C107.012 70.0843 106.917 70.1557 106.821 70.1557V69.7748Z" fill="#999999"/>
<path d="M64.5361 50.1815C64.6552 50.1815 64.7266 50.2767 64.7266 50.3719C64.7266 50.491 64.6313 50.5624 64.5361 50.5624V50.1815ZM50.028 50.1815H64.5361V50.5624H50.028V50.1815ZM50.3615 52.4432L46.6213 50.3957L50.3615 48.3483V52.467V52.4432ZM50.028 50.5862C49.9089 50.5862 49.8374 50.491 49.8374 50.3957C49.8374 50.2767 49.9327 50.2053 50.028 50.2053V50.5862Z" fill="#999999"/>
<path d="M64.5359 59.99C64.655 59.99 64.7264 60.0852 64.7264 60.1805C64.7264 60.2995 64.6312 60.3709 64.5359 60.3709V59.99ZM46.7403 59.99H64.5359V60.3709H46.7403V59.99ZM47.0738 62.2517L43.3336 60.2043L47.0738 58.1569V62.2755V62.2517ZM46.7403 60.3947C46.6212 60.3947 46.5497 60.2995 46.5497 60.2043C46.5497 60.0852 46.645 60.0138 46.7403 60.0138V60.3947Z" fill="#999999"/>
<path d="M64.5355 69.7986C64.6546 69.7986 64.726 69.8938 64.726 69.9891C64.726 70.1081 64.6307 70.1795 64.5355 70.1795V69.7986ZM42.8329 69.7986H64.5355V70.1795H42.8329V69.7986ZM43.1664 72.0603L39.4263 70.0129L43.1664 67.9655V72.0841V72.0603ZM42.8329 70.2033C42.7138 70.2033 42.6423 70.1081 42.6423 70.0129C42.6423 69.8938 42.7376 69.8224 42.8329 69.8224V70.2033Z" fill="#999999"/>
</svg>
