<svg width="42" height="42" viewBox="0 0 42 42" fill="none" xmlns="http://www.w3.org/2000/svg">
<circle cx="21" cy="21" r="21" fill="#F5F5F5"/>
<mask id="path-2-inside-1_8589_11452" fill="white">
<path fill-rule="evenodd" clip-rule="evenodd" d="M25.4142 10H16.6792V16.4227L10 16.4227V25.1576H16.6792V31.8374H25.4142V25.1576H31.8374V16.4227L25.4142 16.4227V10Z"/>
</mask>
<path d="M16.6792 10V9.24646H15.9257V10H16.6792ZM25.4142 10H26.1677V9.24646H25.4142V10ZM16.6792 16.4227V17.1762H17.4328V16.4227H16.6792ZM10 16.4227L10 15.6691H9.24646V16.4227H10ZM10 25.1576H9.24646V25.9112H10V25.1576ZM16.6792 25.1576H17.4328V24.4041H16.6792V25.1576ZM16.6792 31.8374H15.9257V32.5909H16.6792V31.8374ZM25.4142 31.8374V32.5909H26.1677V31.8374H25.4142ZM25.4142 25.1576V24.4041H24.6606V25.1576H25.4142ZM31.8374 25.1576V25.9112H32.5909V25.1576H31.8374ZM31.8374 16.4227H32.5909V15.6691H31.8374V16.4227ZM25.4142 16.4227H24.6606V17.1762H25.4142V16.4227ZM16.6792 10.7535H25.4142V9.24646H16.6792V10.7535ZM17.4328 16.4227V10H15.9257V16.4227H17.4328ZM10 17.1762L16.6792 17.1762V15.6691L10 15.6691L10 17.1762ZM10.7535 25.1576V16.4227H9.24646V25.1576H10.7535ZM16.6792 24.4041H10V25.9112H16.6792V24.4041ZM17.4328 31.8374V25.1576H15.9257V31.8374H17.4328ZM25.4142 31.0838H16.6792V32.5909H25.4142V31.0838ZM24.6606 25.1576V31.8374H26.1677V25.1576H24.6606ZM31.8374 24.4041H25.4142V25.9112H31.8374V24.4041ZM31.0838 16.4227V25.1576H32.5909V16.4227H31.0838ZM25.4142 17.1762L31.8374 17.1762V15.6691L25.4142 15.6691V17.1762ZM24.6606 10V16.4227H26.1677V10H24.6606Z" fill="black" mask="url(#path-2-inside-1_8589_11452)"/>
</svg>
