<svg width="43" height="42" viewBox="0 0 43 42" fill="none" xmlns="http://www.w3.org/2000/svg">
<circle cx="21.5" cy="21" r="21" fill="#F5F5F5"/>
<path fill-rule="evenodd" clip-rule="evenodd" d="M21.8145 8V33.3362C21.8145 33.3362 11.7228 30.4368 10.5 12.1556C10.5 12.1556 19.535 9.96717 21.8145 8.0079V8Z" fill="#F5F5F5" stroke="black" stroke-width="0.75" stroke-miterlimit="2.61313" stroke-linecap="round" stroke-linejoin="round"/>
<path fill-rule="evenodd" clip-rule="evenodd" d="M21.8125 8V33.3362C21.8125 33.3362 31.9042 30.4368 33.127 12.1556C33.127 12.1556 24.092 9.96717 21.8125 8.0079V8Z" fill="#F5F5F5" stroke="black" stroke-width="0.75" stroke-miterlimit="2.61313" stroke-linecap="round" stroke-linejoin="round"/>
<path d="M21.8169 26.8442C25.5948 26.8442 28.6573 23.6387 28.6573 19.6845C28.6573 15.7304 25.5948 12.5249 21.8169 12.5249C18.0391 12.5249 14.9766 15.7304 14.9766 19.6845C14.9766 23.6387 18.0391 26.8442 21.8169 26.8442Z" fill="#F5F5F5" stroke="black" stroke-width="0.75" stroke-miterlimit="2.61313" stroke-linecap="round" stroke-linejoin="round"/>
<path fill-rule="evenodd" clip-rule="evenodd" d="M20.5002 24.0284C20.8958 24.2401 21.3442 24.3597 21.819 24.3597C22.2938 24.3597 22.7422 24.2401 23.1379 24.0284C24.0962 23.5223 24.7469 22.4824 24.7469 21.2952C24.7469 21.2216 24.7469 21.1572 24.7381 21.0836C24.7381 21.0836 24.7381 21.0744 24.7381 21.0652H24.7469C24.7556 20.8719 24.7117 19.4179 21.819 15.019C18.9352 19.4179 18.8824 20.8719 18.8912 21.0652H18.9C18.9 21.0836 18.9 21.0836 18.9 21.0836C18.8912 21.1572 18.8912 21.2216 18.8912 21.2952C18.8912 22.4916 19.5418 23.5315 20.5002 24.0284Z" fill="#F5F5F5" stroke="black" stroke-width="0.75" stroke-miterlimit="2.61313" stroke-linecap="round" stroke-linejoin="round"/>
</svg>
