<svg width="43" height="42" viewBox="0 0 43 42" fill="none" xmlns="http://www.w3.org/2000/svg">
<circle cx="21.5" cy="21" r="21" fill="#F5F5F5"/>
<path d="M24.3241 28.8266C23.4707 29.2565 22.5027 29.4983 21.4808 29.4983C17.9899 29.4983 15.1602 26.6806 15.1602 23.2047C15.1602 23.057 15.1635 22.9126 15.1736 22.7682C15.1736 22.7682 14.7554 20.0546 21.4808 10.3154C27.707 19.3393 27.8082 22.3282 27.7879 22.7211" stroke="black" stroke-width="0.75" stroke-miterlimit="2.61313" stroke-linecap="round" stroke-linejoin="round"/>
<path d="M21.863 26.6438C19.5965 26.6438 17.7617 24.8169 17.7617 22.5601" stroke="black" stroke-width="0.75" stroke-miterlimit="2.61313" stroke-linecap="round" stroke-linejoin="round"/>
<path d="M13.0212 17.0122C14.9659 17.0122 16.5424 15.4425 16.5424 13.5061C16.5424 11.5697 14.9659 10 13.0212 10C11.0765 10 9.5 11.5697 9.5 13.5061C9.5 15.4425 11.0765 17.0122 13.0212 17.0122Z" stroke="black" stroke-width="0.75" stroke-miterlimit="2.61313" stroke-linecap="round" stroke-linejoin="round"/>
<path d="M13.1631 15.2157C12.1344 15.2157 11.3047 14.3862 11.3047 13.3652" stroke="black" stroke-width="0.75" stroke-miterlimit="2.61313" stroke-linecap="round" stroke-linejoin="round"/>
<path d="M28.5549 31.7051C31.064 31.7051 33.098 29.6798 33.098 27.1814C33.098 24.683 31.064 22.6577 28.5549 22.6577C26.0458 22.6577 24.0117 24.683 24.0117 27.1814C24.0117 29.6798 26.0458 31.7051 28.5549 31.7051Z" stroke="black" stroke-width="0.75" stroke-miterlimit="2.61313" stroke-linecap="round" stroke-linejoin="round"/>
<path fill-rule="evenodd" clip-rule="evenodd" d="M28.2935 24.9012V24.5519C28.2935 24.4008 28.3745 24.3135 28.5296 24.3135H28.5769C28.7219 24.3135 28.8062 24.3806 28.8062 24.5284V24.8911C29.1367 24.918 29.4437 25.0254 29.7169 25.2135C29.8417 25.2941 29.8484 25.415 29.7843 25.5393L29.7034 25.6971C29.6191 25.8382 29.4943 25.8482 29.3627 25.7643C29.13 25.6165 28.8703 25.5225 28.5903 25.5225C28.2362 25.5225 27.8281 25.7307 27.8281 26.127C27.8281 26.9565 29.9867 26.7919 29.9867 28.2159C29.9867 28.911 29.4774 29.3812 28.8062 29.4719V29.8077C28.8062 29.9555 28.732 30.0495 28.5769 30.0495H28.5296C28.388 30.0495 28.2935 29.979 28.2935 29.8312V29.4719C27.8955 29.4282 27.538 29.2771 27.2244 29.0319C27.1063 28.9413 27.0928 28.8137 27.1873 28.6995L27.2884 28.5551C27.3829 28.4241 27.5009 28.4274 27.6325 28.5114C27.9023 28.7129 28.2261 28.8439 28.5667 28.8439C28.9411 28.8439 29.2986 28.6424 29.2986 28.2327C29.2986 27.3628 27.1367 27.4938 27.1367 26.1371C27.1367 25.4721 27.6595 25.0053 28.2935 24.9012Z" fill="black"/>
</svg>
