<svg width="43" height="42" viewBox="0 0 43 42" fill="none" xmlns="http://www.w3.org/2000/svg">
<circle cx="21.5" cy="21" r="21" fill="#F5F5F5"/>
<path fill-rule="evenodd" clip-rule="evenodd" d="M20.4996 33.0325H14.4928C14.4928 33.0325 11.6474 32.952 13.2118 29.2358L15.2751 25.6951L17.977 21.0681V18.8699C17.977 18.8699 16.5166 18.0286 16.7247 17.2349C16.9328 16.4412 17.9268 16.5802 17.9268 16.5802H20.4996H23.0867C23.0867 16.5802 24.0771 16.4412 24.2852 17.2349C24.4969 18.0286 23.0257 18.8699 23.0257 18.8699V21.0681L27.7909 29.2358C29.3554 32.952 26.5099 33.0325 26.5099 33.0325H20.4996Z" stroke="black" stroke-width="0.75" stroke-miterlimit="2.61313" stroke-linecap="round" stroke-linejoin="round"/>
<path d="M16.375 23.8076H24.6351" stroke="black" stroke-width="0.75" stroke-miterlimit="2.61313" stroke-linecap="round" stroke-linejoin="round"/>
<path d="M15.1797 25.8672H18.079" stroke="black" stroke-width="0.75" stroke-miterlimit="2.61313" stroke-linecap="round" stroke-linejoin="round"/>
<path d="M14.0664 27.7729H16.9657" stroke="black" stroke-width="0.75" stroke-miterlimit="2.61313" stroke-linecap="round" stroke-linejoin="round"/>
<path d="M13.0391 29.6748H15.942" stroke="black" stroke-width="0.75" stroke-miterlimit="2.61313" stroke-linecap="round" stroke-linejoin="round"/>
<path d="M26.7025 11.528L24.1875 8.96436L23.0921 10.081L25.607 12.6447L26.7025 11.528Z" stroke="black" stroke-width="0.75" stroke-miterlimit="2.61313" stroke-linecap="round" stroke-linejoin="round"/>
<path fill-rule="evenodd" clip-rule="evenodd" d="M27.1446 8.51483C27.5178 8.89523 27.4855 9.5463 27.0765 9.96693L26.122 10.9362L24.7656 9.55361L25.7201 8.58432C26.1292 8.16369 26.7715 8.13443 27.1446 8.51483Z" stroke="black" stroke-width="0.75" stroke-miterlimit="2.61313" stroke-linecap="round" stroke-linejoin="round"/>
<path fill-rule="evenodd" clip-rule="evenodd" d="M21.4303 14.8644L21.1792 15.1205C21.1146 15.1863 21.0213 15.1973 20.971 15.1461L20.6409 14.8095C20.5907 14.7583 20.6015 14.6632 20.666 14.5974L20.9136 14.3414C20.9172 14.1475 20.9997 13.939 21.1648 13.7744L23.9385 10.9434L24.7602 11.781L21.9865 14.612C21.825 14.7766 21.6169 14.8644 21.4303 14.8644Z" stroke="black" stroke-width="0.75" stroke-miterlimit="2.61313" stroke-linecap="round" stroke-linejoin="round"/>
<path fill-rule="evenodd" clip-rule="evenodd" d="M21.4464 20.5744C21.4464 20.5963 21.4464 20.6182 21.4464 20.6402C21.4464 21.1742 21.023 21.6058 20.4991 21.6058C19.9788 21.6058 19.5554 21.1742 19.5554 20.6402C19.5554 20.6182 19.5554 20.5963 19.5554 20.5744C19.5554 20.5744 19.4944 20.161 20.4991 18.665C21.5038 20.1537 21.4464 20.5707 21.4464 20.5744Z" stroke="black" stroke-width="0.75" stroke-miterlimit="2.61313" stroke-linecap="round" stroke-linejoin="round"/>
</svg>
