<svg width="159" height="14" viewBox="0 0 159 14" fill="none" xmlns="http://www.w3.org/2000/svg">
<path d="M5.808 1.66V2.776H2.268V5.236H5.028V6.352H2.268V10H0.9V1.66H5.808ZM8.47978 4.348C8.67978 4.012 8.94378 3.752 9.27178 3.568C9.60778 3.376 10.0038 3.28 10.4598 3.28V4.696H10.1118C9.57578 4.696 9.16778 4.832 8.88778 5.104C8.61578 5.376 8.47978 5.848 8.47978 6.52V10H7.11178V3.388H8.47978V4.348ZM17.8133 6.532C17.8133 6.78 17.7973 7.004 17.7652 7.204H12.7132C12.7532 7.732 12.9492 8.156 13.3012 8.476C13.6532 8.796 14.0852 8.956 14.5972 8.956C15.3332 8.956 15.8532 8.648 16.1572 8.032H17.6332C17.4332 8.64 17.0692 9.14 16.5412 9.532C16.0212 9.916 15.3732 10.108 14.5972 10.108C13.9652 10.108 13.3972 9.968 12.8932 9.688C12.3972 9.4 12.0052 9 11.7172 8.488C11.4372 7.968 11.2972 7.368 11.2972 6.688C11.2972 6.008 11.4332 5.412 11.7052 4.9C11.9852 4.38 12.3732 3.98 12.8692 3.7C13.3732 3.42 13.9492 3.28 14.5972 3.28C15.2212 3.28 15.7772 3.416 16.2652 3.688C16.7532 3.96 17.1332 4.344 17.4052 4.84C17.6772 5.328 17.8133 5.892 17.8133 6.532ZM16.3852 6.1C16.3772 5.596 16.1972 5.192 15.8452 4.888C15.4932 4.584 15.0572 4.432 14.5372 4.432C14.0652 4.432 13.6612 4.584 13.3252 4.888C12.9892 5.184 12.7892 5.588 12.7252 6.1H16.3852ZM25.2555 6.532C25.2555 6.78 25.2395 7.004 25.2075 7.204H20.1555C20.1955 7.732 20.3915 8.156 20.7435 8.476C21.0955 8.796 21.5275 8.956 22.0395 8.956C22.7755 8.956 23.2955 8.648 23.5995 8.032H25.0755C24.8755 8.64 24.5115 9.14 23.9835 9.532C23.4635 9.916 22.8155 10.108 22.0395 10.108C21.4075 10.108 20.8395 9.968 20.3355 9.688C19.8395 9.4 19.4475 9 19.1595 8.488C18.8795 7.968 18.7395 7.368 18.7395 6.688C18.7395 6.008 18.8755 5.412 19.1475 4.9C19.4275 4.38 19.8155 3.98 20.3115 3.7C20.8155 3.42 21.3915 3.28 22.0395 3.28C22.6635 3.28 23.2195 3.416 23.7075 3.688C24.1955 3.96 24.5755 4.344 24.8475 4.84C25.1195 5.328 25.2555 5.892 25.2555 6.532ZM23.8275 6.1C23.8195 5.596 23.6395 5.192 23.2875 4.888C22.9355 4.584 22.4995 4.432 21.9795 4.432C21.5075 4.432 21.1035 4.584 20.7675 4.888C20.4315 5.184 20.2315 5.588 20.1675 6.1H23.8275ZM40.6509 1.66L38.1789 10H36.6309L34.8789 3.688L33.0189 10L31.4829 10.012L29.1189 1.66H30.5709L32.2989 8.452L34.1709 1.66H35.7069L37.4469 8.416L39.1869 1.66H40.6509ZM44.6832 10.108C44.0592 10.108 43.4952 9.968 42.9912 9.688C42.4872 9.4 42.0912 9 41.8032 8.488C41.5152 7.968 41.3712 7.368 41.3712 6.688C41.3712 6.016 41.5192 5.42 41.8152 4.9C42.1112 4.38 42.5152 3.98 43.0272 3.7C43.5392 3.42 44.1112 3.28 44.7432 3.28C45.3752 3.28 45.9472 3.42 46.4592 3.7C46.9712 3.98 47.3752 4.38 47.6712 4.9C47.9672 5.42 48.1152 6.016 48.1152 6.688C48.1152 7.36 47.9632 7.956 47.6592 8.476C47.3552 8.996 46.9392 9.4 46.4112 9.688C45.8912 9.968 45.3152 10.108 44.6832 10.108ZM44.6832 8.92C45.0352 8.92 45.3632 8.836 45.6672 8.668C45.9792 8.5 46.2312 8.248 46.4232 7.912C46.6152 7.576 46.7112 7.168 46.7112 6.688C46.7112 6.208 46.6192 5.804 46.4352 5.476C46.2512 5.14 46.0072 4.888 45.7032 4.72C45.3992 4.552 45.0712 4.468 44.7192 4.468C44.3672 4.468 44.0392 4.552 43.7352 4.72C43.4392 4.888 43.2032 5.14 43.0272 5.476C42.8512 5.804 42.7632 6.208 42.7632 6.688C42.7632 7.4 42.9432 7.952 43.3032 8.344C43.6712 8.728 44.1312 8.92 44.6832 8.92ZM50.8716 4.348C51.0716 4.012 51.3356 3.752 51.6636 3.568C51.9996 3.376 52.3956 3.28 52.8516 3.28V4.696H52.5036C51.9676 4.696 51.5596 4.832 51.2796 5.104C51.0076 5.376 50.8716 5.848 50.8716 6.52V10H49.5036V3.388H50.8716V4.348ZM55.513 1.12V10H54.145V1.12H55.513ZM56.8891 6.664C56.8891 6 57.0251 5.412 57.2971 4.9C57.5771 4.388 57.9531 3.992 58.4251 3.712C58.9051 3.424 59.4371 3.28 60.0211 3.28C60.4531 3.28 60.8771 3.376 61.2931 3.568C61.7171 3.752 62.0531 4 62.3011 4.312V1.12H63.6811V10H62.3011V9.004C62.0771 9.324 61.7651 9.588 61.3651 9.796C60.9731 10.004 60.5211 10.108 60.0091 10.108C59.4331 10.108 58.9051 9.964 58.4251 9.676C57.9531 9.38 57.5771 8.972 57.2971 8.452C57.0251 7.924 56.8891 7.328 56.8891 6.664ZM62.3011 6.688C62.3011 6.232 62.2051 5.836 62.0131 5.5C61.8291 5.164 61.5851 4.908 61.2811 4.732C60.9771 4.556 60.6491 4.468 60.2971 4.468C59.9451 4.468 59.6171 4.556 59.3131 4.732C59.0091 4.9 58.7611 5.152 58.5691 5.488C58.3851 5.816 58.2931 6.208 58.2931 6.664C58.2931 7.12 58.3851 7.52 58.5691 7.864C58.7611 8.208 59.0091 8.472 59.3131 8.656C59.6251 8.832 59.9531 8.92 60.2971 8.92C60.6491 8.92 60.9771 8.832 61.2811 8.656C61.5851 8.48 61.8291 8.224 62.0131 7.888C62.2051 7.544 62.3011 7.144 62.3011 6.688ZM70.5899 5.08V6.232H65.6579V5.08H70.5899ZM83.4294 1.66L80.9574 10H79.4094L77.6574 3.688L75.7974 10L74.2614 10.012L71.8974 1.66H73.3494L75.0774 8.452L76.9494 1.66H78.4854L80.2254 8.416L81.9654 1.66H83.4294ZM85.2897 2.512C85.0417 2.512 84.8337 2.428 84.6657 2.26C84.4977 2.092 84.4137 1.884 84.4137 1.636C84.4137 1.388 84.4977 1.18 84.6657 1.012C84.8337 0.844 85.0417 0.76 85.2897 0.76C85.5297 0.76 85.7337 0.844 85.9017 1.012C86.0697 1.18 86.1537 1.388 86.1537 1.636C86.1537 1.884 86.0697 2.092 85.9017 2.26C85.7337 2.428 85.5297 2.512 85.2897 2.512ZM85.9617 3.388V10H84.5937V3.388H85.9617ZM87.3378 6.664C87.3378 6 87.4738 5.412 87.7458 4.9C88.0258 4.388 88.4018 3.992 88.8738 3.712C89.3538 3.424 89.8858 3.28 90.4698 3.28C90.9018 3.28 91.3258 3.376 91.7418 3.568C92.1658 3.752 92.5018 4 92.7498 4.312V1.12H94.1298V10H92.7498V9.004C92.5258 9.324 92.2138 9.588 91.8138 9.796C91.4218 10.004 90.9698 10.108 90.4578 10.108C89.8818 10.108 89.3538 9.964 88.8738 9.676C88.4018 9.38 88.0258 8.972 87.7458 8.452C87.4738 7.924 87.3378 7.328 87.3378 6.664ZM92.7498 6.688C92.7498 6.232 92.6538 5.836 92.4618 5.5C92.2778 5.164 92.0338 4.908 91.7298 4.732C91.4258 4.556 91.0978 4.468 90.7458 4.468C90.3938 4.468 90.0658 4.556 89.7618 4.732C89.4578 4.9 89.2098 5.152 89.0178 5.488C88.8338 5.816 88.7418 6.208 88.7418 6.664C88.7418 7.12 88.8338 7.52 89.0178 7.864C89.2098 8.208 89.4578 8.472 89.7618 8.656C90.0738 8.832 90.4018 8.92 90.7458 8.92C91.0978 8.92 91.4258 8.832 91.7298 8.656C92.0338 8.48 92.2778 8.224 92.4618 7.888C92.6538 7.544 92.7498 7.144 92.7498 6.688ZM102.023 6.532C102.023 6.78 102.007 7.004 101.975 7.204H96.9226C96.9626 7.732 97.1586 8.156 97.5106 8.476C97.8626 8.796 98.2946 8.956 98.8066 8.956C99.5426 8.956 100.063 8.648 100.367 8.032H101.843C101.643 8.64 101.279 9.14 100.751 9.532C100.231 9.916 99.5826 10.108 98.8066 10.108C98.1746 10.108 97.6066 9.968 97.1026 9.688C96.6066 9.4 96.2146 9 95.9266 8.488C95.6466 7.968 95.5066 7.368 95.5066 6.688C95.5066 6.008 95.6426 5.412 95.9146 4.9C96.1946 4.38 96.5826 3.98 97.0786 3.7C97.5826 3.42 98.1586 3.28 98.8066 3.28C99.4306 3.28 99.9866 3.416 100.475 3.688C100.963 3.96 101.343 4.344 101.615 4.84C101.887 5.328 102.023 5.892 102.023 6.532ZM100.595 6.1C100.587 5.596 100.407 5.192 100.055 4.888C99.7026 4.584 99.2666 4.432 98.7466 4.432C98.2746 4.432 97.8706 4.584 97.5346 4.888C97.1986 5.184 96.9986 5.588 96.9346 6.1H100.595ZM109.306 10.084C108.746 10.084 108.242 9.988 107.794 9.796C107.346 9.596 106.994 9.316 106.738 8.956C106.482 8.596 106.354 8.176 106.354 7.696H107.818C107.85 8.056 107.99 8.352 108.238 8.584C108.494 8.816 108.85 8.932 109.306 8.932C109.778 8.932 110.146 8.82 110.41 8.596C110.674 8.364 110.806 8.068 110.806 7.708C110.806 7.428 110.722 7.2 110.554 7.024C110.394 6.848 110.19 6.712 109.942 6.616C109.702 6.52 109.366 6.416 108.934 6.304C108.39 6.16 107.946 6.016 107.602 5.872C107.266 5.72 106.978 5.488 106.738 5.176C106.498 4.864 106.378 4.448 106.378 3.928C106.378 3.448 106.498 3.028 106.738 2.668C106.978 2.308 107.314 2.032 107.746 1.84C108.178 1.648 108.678 1.552 109.246 1.552C110.054 1.552 110.714 1.756 111.226 2.164C111.746 2.564 112.034 3.116 112.09 3.82H110.578C110.554 3.516 110.41 3.256 110.146 3.04C109.882 2.824 109.534 2.716 109.102 2.716C108.71 2.716 108.39 2.816 108.142 3.016C107.894 3.216 107.77 3.504 107.77 3.88C107.77 4.136 107.846 4.348 107.998 4.516C108.158 4.676 108.358 4.804 108.598 4.9C108.838 4.996 109.166 5.1 109.582 5.212C110.134 5.364 110.582 5.516 110.926 5.668C111.278 5.82 111.574 6.056 111.814 6.376C112.062 6.688 112.186 7.108 112.186 7.636C112.186 8.06 112.07 8.46 111.838 8.836C111.614 9.212 111.282 9.516 110.842 9.748C110.41 9.972 109.898 10.084 109.306 10.084ZM117.256 3.28C117.76 3.28 118.208 3.388 118.6 3.604C119 3.82 119.312 4.14 119.536 4.564C119.768 4.988 119.884 5.5 119.884 6.1V10H118.528V6.304C118.528 5.712 118.38 5.26 118.084 4.948C117.788 4.628 117.384 4.468 116.872 4.468C116.36 4.468 115.952 4.628 115.648 4.948C115.352 5.26 115.204 5.712 115.204 6.304V10H113.836V1.12H115.204V4.156C115.436 3.876 115.728 3.66 116.08 3.508C116.44 3.356 116.832 3.28 117.256 3.28ZM122.361 2.512C122.113 2.512 121.905 2.428 121.737 2.26C121.569 2.092 121.485 1.884 121.485 1.636C121.485 1.388 121.569 1.18 121.737 1.012C121.905 0.844 122.113 0.76 122.361 0.76C122.601 0.76 122.805 0.844 122.973 1.012C123.141 1.18 123.225 1.388 123.225 1.636C123.225 1.884 123.141 2.092 122.973 2.26C122.805 2.428 122.601 2.512 122.361 2.512ZM123.033 3.388V10H121.665V3.388H123.033ZM126.233 4.36C126.465 4.056 126.781 3.8 127.181 3.592C127.581 3.384 128.033 3.28 128.537 3.28C129.113 3.28 129.637 3.424 130.109 3.712C130.589 3.992 130.965 4.388 131.237 4.9C131.509 5.412 131.645 6 131.645 6.664C131.645 7.328 131.509 7.924 131.237 8.452C130.965 8.972 130.589 9.38 130.109 9.676C129.637 9.964 129.113 10.108 128.537 10.108C128.033 10.108 127.585 10.008 127.193 9.808C126.801 9.6 126.481 9.344 126.233 9.04V13.144H124.865V3.388H126.233V4.36ZM130.253 6.664C130.253 6.208 130.157 5.816 129.965 5.488C129.781 5.152 129.533 4.9 129.221 4.732C128.917 4.556 128.589 4.468 128.237 4.468C127.893 4.468 127.565 4.556 127.253 4.732C126.949 4.908 126.701 5.164 126.509 5.5C126.325 5.836 126.233 6.232 126.233 6.688C126.233 7.144 126.325 7.544 126.509 7.888C126.701 8.224 126.949 8.48 127.253 8.656C127.565 8.832 127.893 8.92 128.237 8.92C128.589 8.92 128.917 8.832 129.221 8.656C129.533 8.472 129.781 8.208 129.965 7.864C130.157 7.52 130.253 7.12 130.253 6.664ZM134.402 4.36C134.634 4.056 134.95 3.8 135.35 3.592C135.75 3.384 136.202 3.28 136.706 3.28C137.282 3.28 137.806 3.424 138.278 3.712C138.758 3.992 139.134 4.388 139.406 4.9C139.678 5.412 139.814 6 139.814 6.664C139.814 7.328 139.678 7.924 139.406 8.452C139.134 8.972 138.758 9.38 138.278 9.676C137.806 9.964 137.282 10.108 136.706 10.108C136.202 10.108 135.754 10.008 135.362 9.808C134.97 9.6 134.65 9.344 134.402 9.04V13.144H133.034V3.388H134.402V4.36ZM138.422 6.664C138.422 6.208 138.326 5.816 138.134 5.488C137.95 5.152 137.702 4.9 137.39 4.732C137.086 4.556 136.758 4.468 136.406 4.468C136.062 4.468 135.734 4.556 135.422 4.732C135.118 4.908 134.87 5.164 134.678 5.5C134.494 5.836 134.402 6.232 134.402 6.688C134.402 7.144 134.494 7.544 134.678 7.888C134.87 8.224 135.118 8.48 135.422 8.656C135.734 8.832 136.062 8.92 136.406 8.92C136.758 8.92 137.086 8.832 137.39 8.656C137.702 8.472 137.95 8.208 138.134 7.864C138.326 7.52 138.422 7.12 138.422 6.664ZM141.899 2.512C141.651 2.512 141.443 2.428 141.275 2.26C141.107 2.092 141.023 1.884 141.023 1.636C141.023 1.388 141.107 1.18 141.275 1.012C141.443 0.844 141.651 0.76 141.899 0.76C142.139 0.76 142.343 0.844 142.511 1.012C142.679 1.18 142.763 1.388 142.763 1.636C142.763 1.884 142.679 2.092 142.511 2.26C142.343 2.428 142.139 2.512 141.899 2.512ZM142.571 3.388V10H141.203V3.388H142.571ZM147.739 3.28C148.259 3.28 148.723 3.388 149.131 3.604C149.547 3.82 149.871 4.14 150.103 4.564C150.335 4.988 150.451 5.5 150.451 6.1V10H149.095V6.304C149.095 5.712 148.947 5.26 148.651 4.948C148.355 4.628 147.951 4.468 147.439 4.468C146.927 4.468 146.519 4.628 146.215 4.948C145.919 5.26 145.771 5.712 145.771 6.304V10H144.403V3.388H145.771V4.144C145.995 3.872 146.279 3.66 146.623 3.508C146.975 3.356 147.347 3.28 147.739 3.28ZM154.896 3.28C155.408 3.28 155.86 3.384 156.252 3.592C156.652 3.792 156.964 4.044 157.188 4.348V3.388H158.568V10.108C158.568 10.716 158.44 11.256 158.184 11.728C157.928 12.208 157.556 12.584 157.068 12.856C156.588 13.128 156.012 13.264 155.34 13.264C154.444 13.264 153.7 13.052 153.108 12.628C152.516 12.212 152.18 11.644 152.1 10.924H153.456C153.56 11.268 153.78 11.544 154.116 11.752C154.46 11.968 154.868 12.076 155.34 12.076C155.892 12.076 156.336 11.908 156.672 11.572C157.016 11.236 157.188 10.748 157.188 10.108V9.004C156.956 9.316 156.64 9.58 156.24 9.796C155.848 10.004 155.4 10.108 154.896 10.108C154.32 10.108 153.792 9.964 153.312 9.676C152.84 9.38 152.464 8.972 152.184 8.452C151.912 7.924 151.776 7.328 151.776 6.664C151.776 6 151.912 5.412 152.184 4.9C152.464 4.388 152.84 3.992 153.312 3.712C153.792 3.424 154.32 3.28 154.896 3.28ZM157.188 6.688C157.188 6.232 157.092 5.836 156.9 5.5C156.716 5.164 156.472 4.908 156.168 4.732C155.864 4.556 155.536 4.468 155.184 4.468C154.832 4.468 154.504 4.556 154.2 4.732C153.896 4.9 153.648 5.152 153.456 5.488C153.272 5.816 153.18 6.208 153.18 6.664C153.18 7.12 153.272 7.52 153.456 7.864C153.648 8.208 153.896 8.472 154.2 8.656C154.512 8.832 154.84 8.92 155.184 8.92C155.536 8.92 155.864 8.832 156.168 8.656C156.472 8.48 156.716 8.224 156.9 7.888C157.092 7.544 157.188 7.144 157.188 6.688Z" fill="black"/>
</svg>
