<svg width="96" height="96" viewBox="0 0 96 96" fill="none" xmlns="http://www.w3.org/2000/svg">
<circle cx="48" cy="48" r="48" fill="black"/>
<path d="M39.0139 56.312L44.4539 41.464H47.5579L40.6779 59H37.2859L30.4059 41.464H33.5419L39.0139 56.312ZM56.9314 59.288C55.5874 59.288 54.382 59.064 53.3154 58.616C52.2487 58.1467 51.406 57.5067 50.7874 56.696C50.1687 55.864 49.8274 54.9147 49.7634 53.848H52.7714C52.8567 54.7227 53.262 55.4373 53.9874 55.992C54.734 56.5467 55.7047 56.824 56.8994 56.824C58.0087 56.824 58.8834 56.5787 59.5234 56.088C60.1634 55.5973 60.4834 54.9787 60.4834 54.232C60.4834 53.464 60.142 52.8987 59.4594 52.536C58.7767 52.152 57.7207 51.7787 56.2914 51.416C54.99 51.0747 53.9234 50.7333 53.0914 50.392C52.2807 50.0293 51.5767 49.5067 50.9794 48.824C50.4034 48.12 50.1154 47.2027 50.1154 46.072C50.1154 45.176 50.382 44.3547 50.9154 43.608C51.4487 42.8613 52.206 42.2747 53.1874 41.848C54.1687 41.4 55.2887 41.176 56.5474 41.176C58.4887 41.176 60.0567 41.6667 61.2514 42.648C62.446 43.6293 63.086 44.9733 63.1714 46.68H60.2594C60.1954 45.7627 59.822 45.0267 59.1394 44.472C58.478 43.9173 57.582 43.64 56.4514 43.64C55.406 43.64 54.574 43.864 53.9554 44.312C53.3367 44.76 53.0274 45.3467 53.0274 46.072C53.0274 46.648 53.2087 47.128 53.5714 47.512C53.9554 47.8747 54.4247 48.1733 54.9794 48.408C55.5554 48.6213 56.3447 48.8667 57.3474 49.144C58.606 49.4853 59.63 49.8267 60.4194 50.168C61.2087 50.488 61.8807 50.9787 62.4354 51.64C63.0114 52.3013 63.31 53.1653 63.3314 54.232C63.3314 55.192 63.0647 56.056 62.5314 56.824C61.998 57.592 61.2407 58.2 60.2594 58.648C59.2994 59.0747 58.19 59.288 56.9314 59.288Z" fill="white"/>
</svg>
